<svg width="16" height="16" viewBox="0 0 16 16" fill="none" xmlns="http://www.w3.org/2000/svg">
<path d="M14.4665 9.61266C13.5761 13.184 9.95865 15.3573 6.38685 14.4669C2.81671 13.5765 0.643217 9.95911 1.53382 6.38793C2.4238 2.81613 6.04102 0.64243 9.61178 1.53283C13.1834 2.42323 15.3567 6.04107 14.4663 9.61266H14.4665Z" fill="#F7931A"/>
<path d="M10.9394 7.05021C11.0719 6.16315 10.3965 5.68628 9.47302 5.36816L9.7726 4.16652L9.04095 3.98423L8.74929 5.15421C8.55721 5.10629 8.35971 5.06109 8.16347 5.0163L8.45721 3.83861L7.72618 3.65632L7.4264 4.85755C7.26724 4.8213 7.11099 4.78547 6.95932 4.74776L6.96016 4.74401L5.95143 4.49214L5.75685 5.27337C5.75685 5.27337 6.29955 5.39775 6.28809 5.40545C6.58433 5.47941 6.63808 5.67545 6.62892 5.83086L6.28767 7.19979C6.30809 7.205 6.33455 7.2125 6.36371 7.22417L6.28663 7.205L5.8081 9.12267C5.77185 9.21267 5.67998 9.34766 5.4729 9.29641C5.48019 9.30704 4.94124 9.16371 4.94124 9.16371L4.57812 10.0012L5.53019 10.2385C5.70727 10.2829 5.88081 10.3293 6.05143 10.3731L5.74873 11.5887L6.47934 11.7709L6.77933 10.5685C6.9787 10.6226 7.17245 10.6726 7.36202 10.7197L7.06328 11.9166L7.79472 12.0989L8.09743 10.8858C9.34469 11.1218 10.2828 11.0266 10.6772 9.89869C10.9953 8.99038 10.6615 8.46643 10.0053 8.12456C10.4832 8.01394 10.8432 7.69957 10.9392 7.05021H10.9394ZM9.26803 9.3937C9.04178 10.302 7.51265 9.81119 7.01662 9.68786L7.41827 8.07769C7.9141 8.20144 9.50385 8.44643 9.26823 9.3937H9.26803ZM9.49406 7.03709C9.28782 7.86332 8.01493 7.44354 7.60181 7.34062L7.96597 5.88024C8.37909 5.98315 9.70906 6.17523 9.49406 7.03709Z" fill="white"/>
</svg>
