<svg width="48" height="48" viewBox="0 0 48 48" fill="none" xmlns="http://www.w3.org/2000/svg">
<path d="M43.3993 28.838C40.7281 39.5521 29.8758 46.072 19.1604 43.4008C8.44999 40.7296 1.9295 29.8773 4.60132 19.1638C7.27126 8.4484 18.1229 1.92729 28.8352 4.59848C39.55 7.26968 46.0698 18.1232 43.3986 28.838H43.3993Z" fill="#F7931A"/>
<path d="M32.8182 21.1506C33.2157 18.4894 31.1895 17.0588 28.419 16.1045L29.3177 12.4996L27.1227 11.9527L26.2477 15.4626C25.6715 15.3189 25.079 15.1833 24.4903 15.0489L25.3715 11.5158L23.1784 10.969L22.2791 14.5727C21.8016 14.4639 21.3328 14.3564 20.8779 14.2433L20.8804 14.232L17.8542 13.4764L17.2704 15.8201C17.2704 15.8201 18.8985 16.1932 18.8642 16.2164C19.7529 16.4382 19.9141 17.0264 19.8866 17.4926L18.8629 21.5994C18.9242 21.615 19.0035 21.6375 19.091 21.6725L18.8598 21.615L17.4242 27.368C17.3154 27.638 17.0398 28.043 16.4186 27.8892C16.4405 27.9211 14.8236 27.4911 14.8236 27.4911L13.7343 30.0036L16.5905 30.7154C17.1217 30.8486 17.6423 30.9879 18.1542 31.1192L17.2461 34.766L19.4379 35.3128L20.3379 31.7054C20.936 31.8679 21.5172 32.0179 22.086 32.1592L21.1897 35.7497L23.3841 36.2966L24.2922 32.6573C28.034 33.3654 30.8483 33.0798 32.0314 29.6961C32.9857 26.9711 31.9845 25.3993 30.0158 24.3737C31.4495 24.0418 32.5295 23.0987 32.8176 21.1506H32.8182ZM27.804 28.1811C27.1252 30.9061 22.5378 29.4336 21.0497 29.0636L22.2547 24.2331C23.7422 24.6043 28.5114 25.3393 27.8046 28.1811H27.804ZM28.4821 21.1113C27.8633 23.59 24.0447 22.3306 22.8053 22.0219L23.8978 17.6407C25.1371 17.9495 29.1271 18.5257 28.4821 21.1113Z" fill="#F4EFF4"/>
</svg>
