<svg width="12" height="12" viewBox="0 0 12 12" fill="none" xmlns="http://www.w3.org/2000/svg">
<g clip-path="url(#clip0_30_184)">
<path d="M8.83265 5.99934L10.0497 4.78219L11.2669 5.99934L10.0497 7.21641L8.83265 5.99934ZM0.733871 6L1.95093 4.78294L3.168 6L1.95093 7.21706L0.733871 6ZM6 8.83312L3.9825 6.81562L2.76562 8.0325L6 11.2669L9.23437 8.0325L8.0175 6.81562L6 8.83312ZM6 3.16687L8.0175 5.18437L9.23437 3.9675L6 0.733124L2.76562 3.9675L3.9825 5.18437L6 3.16687Z" fill="#605D62"/>
<path d="M4.79747 6L5.99935 4.79813L7.20122 6L5.99935 7.20188L4.79747 6Z" fill="#605D62"/>
</g>
<defs>
<clipPath id="clip0_30_184">
<rect width="12" height="12" fill="white"/>
</clipPath>
</defs>
</svg>
