<svg width="64" height="65" viewBox="0 0 64 65" fill="none" xmlns="http://www.w3.org/2000/svg">
<rect y="0.5" width="64" height="64" rx="32" fill="#31E1F7"/>
<path fill-rule="evenodd" clip-rule="evenodd" d="M30.3238 20.0525C30.8355 19.7644 31.4128 19.613 32 19.613C32.5872 19.613 33.1645 19.7644 33.6762 20.0525C34.1879 20.3406 34.6167 20.7557 34.9213 21.2577L34.9234 21.2613L46.2168 40.1146L46.2229 40.1249L46.2229 40.125C46.5212 40.6416 46.679 41.2274 46.6807 41.824C46.6824 42.4205 46.5278 43.0072 46.2324 43.5255C45.9369 44.0438 45.5109 44.4757 44.9968 44.7782C44.4826 45.0808 43.8982 45.2434 43.3016 45.25L43.2934 45.2501V45.25H20.7067H20.6985L20.6985 45.25C20.1019 45.2434 19.5175 45.0808 19.0033 44.7782C18.4891 44.4757 18.0631 44.0438 17.7677 43.5255C17.4722 43.0072 17.3177 42.4205 17.3193 41.824C17.321 41.2274 17.4789 40.6416 17.7772 40.125L17.7832 40.1146L17.7833 40.1146L29.0766 21.2613L29.0788 21.2577C29.3833 20.7557 29.8121 20.3406 30.3238 20.0525ZM32 21.113C31.6706 21.113 31.3468 21.1979 31.0597 21.3595C30.7732 21.5208 30.533 21.7531 30.3623 22.034L30.3613 22.0357L19.0734 40.8799C18.9079 41.1685 18.8203 41.4953 18.8193 41.8282C18.8184 42.1628 18.9051 42.4919 19.0708 42.7827C19.2366 43.0734 19.4755 43.3157 19.764 43.4854C20.0513 43.6545 20.3778 43.7457 20.7111 43.75H43.2889C43.6223 43.7457 43.9487 43.6545 44.2361 43.4854C44.5245 43.3157 44.7635 43.0734 44.9292 42.7827C45.0949 42.4919 45.1816 42.1628 45.1807 41.8282C45.1798 41.4953 45.0922 41.1685 44.9266 40.8798L33.6388 22.0357L33.6378 22.034C33.467 21.7531 33.2268 21.5208 32.9403 21.3595C32.6533 21.1979 32.3294 21.113 32 21.113ZM32.75 27.75V28.5V33.8333V34.5833H31.25V33.8333V28.5V27.75H32.75ZM32 38.4167H31.25V39.9167H32H32.0133H32.7633V38.4167H32.0133H32Z" fill="black"/>
</svg>
