<svg width="122" height="34" viewBox="0 0 122 34" fill="none" xmlns="http://www.w3.org/2000/svg">
<path d="M1 29.2001C3.42087 28.2053 5.13361 27.8681 7.76409 27.8681C10.3946 27.8681 11.7724 26.8993 14.5282 26.8993C17.1896 26.8993 18.3805 28.8099 21.0418 28.8368C23.7967 28.8646 25.1754 26.8993 27.8058 26.8993C31.3728 26.8993 31.0036 32.8977 34.5699 32.8328C38.0644 32.7693 38.0772 27.8681 41.0835 26.8993C43.9965 25.9607 44.7771 23.0244 47.8476 23.0244C50.9791 23.0244 51.3752 26.9646 54.3612 26.8993C57.8303 26.8235 57.6552 21.3291 61.1253 21.3291C64.5953 21.3291 64.4193 26.8993 67.8894 26.8993C72.524 26.8993 71.2159 18.8602 74.4029 14.3058C77.2839 10.1887 76.6576 1.83334 81.167 1.83334C84.6743 1.83334 83.9228 3.64972 87.6806 4.73954C91.9728 5.98436 90.8121 11.5207 94.4447 13.7003C97.5605 15.5699 97.7015 19.9971 101.209 19.9971C105.13 19.9971 104.432 13.3678 107.722 12.6105C110.353 12.005 110.959 13.3371 114.486 13.3371C118.119 13.3371 120.05 10.1177 121 6.55592" stroke="url(#paint0_linear_779_2811)" stroke-width="2" stroke-linecap="round" stroke-linejoin="round"/>
<defs>
<linearGradient id="paint0_linear_779_2811" x1="121" y1="17.1702" x2="0.999999" y2="17.1702" gradientUnits="userSpaceOnUse">
<stop stop-color="#3DFFDC"/>
<stop offset="1" stop-color="#3DFFDC" stop-opacity="0.2"/>
</linearGradient>
</defs>
</svg>
