<svg width="126" height="48" viewBox="0 0 126 48" fill="none" xmlns="http://www.w3.org/2000/svg">
<path d="M1 0.666656C3.47912 5.96447 4.91441 9.45324 8.04593 10.2285C11.1775 11.0038 11.5689 12.6835 15.0919 12.6835C18.6148 12.6835 19.1047 14.7223 21.8768 14.7509C24.7465 14.7806 26.1827 12.6835 28.9228 12.6835C32.6383 12.6835 33.9077 15.9534 35.9687 19.015C39.3612 24.0543 40.5355 34.0038 43.0146 34.0038C46.2766 34.0038 46.929 23.4083 49.7996 21.2116C52.3807 19.2364 53.4741 14.8205 56.5846 14.7509C60.1983 14.67 60.0159 21.2116 63.6305 21.2116C67.2451 21.2116 67.0618 14.7509 70.6764 14.7509C75.5042 14.7509 74.3299 24.0543 77.4614 24.0543C80.5929 24.0543 81.8977 27.2846 84.5073 27.2846C87.1169 27.2846 87.2474 29.7397 91.2923 30.3858C95.9007 31.1218 95.0926 37.9526 98.3382 39.9476C101.584 41.9425 102.775 46.6667 105.384 46.6667C108.516 46.6667 109.429 38.7846 112.169 38.7846C114.909 38.7846 116.736 45.7622 119.215 45.7622C121.955 45.7622 122.216 40.7229 126 40.7229" stroke="url(#paint0_linear_1991_1803)" stroke-width="2"/>
<defs>
<linearGradient id="paint0_linear_1991_1803" x1="126" y1="23.4245" x2="1" y2="23.4246" gradientUnits="userSpaceOnUse">
<stop stop-color="#1ED6FF"/>
<stop offset="1" stop-color="#1ED6FF" stop-opacity="0.2"/>
</linearGradient>
</defs>
</svg>
