<svg width="16" height="14" viewBox="0 0 16 14" fill="none" xmlns="http://www.w3.org/2000/svg">
<path fill-rule="evenodd" clip-rule="evenodd" d="M6.66659 0.25C6.11405 0.25 5.58415 0.469493 5.19345 0.860194C4.80275 1.25089 4.58325 1.7808 4.58325 2.33333V2.91667H2.66659C1.51599 2.91667 0.583252 3.84941 0.583252 5V11.6667C0.583252 12.8173 1.51599 13.75 2.66659 13.75H5.33325H10.6666H13.3333C14.4838 13.75 15.4166 12.8173 15.4166 11.6667V5C15.4166 3.84941 14.4838 2.91667 13.3333 2.91667H11.4166V2.33333C11.4166 1.7808 11.1971 1.25089 10.8064 0.860194C10.4157 0.469493 9.88579 0.25 9.33325 0.25H6.66659ZM9.91659 2.91667V2.33333C9.91659 2.17862 9.85513 2.03025 9.74573 1.92085C9.63633 1.81146 9.48796 1.75 9.33325 1.75H6.66659C6.51188 1.75 6.3635 1.81146 6.25411 1.92085C6.14471 2.03025 6.08325 2.17862 6.08325 2.33333V2.91667H9.91659ZM6.08325 4.41667H9.91659V12.25H6.08325V4.41667ZM4.58325 4.41667H2.66659C2.34442 4.41667 2.08325 4.67783 2.08325 5V11.6667C2.08325 11.9888 2.34442 12.25 2.66659 12.25H4.58325V4.41667ZM11.4166 12.25V4.41667H13.3333C13.6554 4.41667 13.9166 4.67783 13.9166 5V11.6667C13.9166 11.9888 13.6554 12.25 13.3333 12.25H11.4166Z" fill="#605D62"/>
</svg>
