<svg width="170" height="76" viewBox="0 0 170 76" fill="none" xmlns="http://www.w3.org/2000/svg">
<g clip-path="url(#clip0_265_7560)">
<path d="M20.4248 54.5101C20.7527 48.8752 16.4504 44.0413 10.8155 43.7134C5.18048 43.3856 0.346643 47.6878 0.0187725 53.3228C-0.309098 58.9578 3.99316 63.7916 9.62813 64.1195C15.2631 64.4474 20.0969 60.1451 20.4248 54.5101Z" fill="url(#paint0_linear_265_7560)"/>
<path d="M20.5999 52.4552C20.9236 46.7727 16.5794 41.9038 10.8969 41.5801C5.21442 41.2564 0.345465 45.6006 0.0217944 51.2831C-0.301876 56.9656 4.04231 61.8345 9.7248 62.1582C15.4073 62.4819 20.2762 58.1377 20.5999 52.4552Z" fill="url(#paint1_linear_265_7560)"/>
<path d="M21.0455 50.7141C21.3647 44.9862 16.9801 40.0841 11.2523 39.7649C5.5244 39.4456 0.622258 43.8302 0.303024 49.558C-0.0162108 55.2859 4.36835 60.1881 10.0962 60.5073C15.8241 60.8265 20.7262 56.442 21.0455 50.7141Z" fill="url(#paint2_linear_265_7560)"/>
<path d="M21.7303 49.2667C22.0441 43.4913 17.6165 38.555 11.8411 38.2412C6.06566 37.9274 1.12936 42.3549 0.815563 48.1304C0.501766 53.9058 4.9293 58.8421 10.7047 59.1559C16.4802 59.4697 21.4165 55.0422 21.7303 49.2667Z" fill="url(#paint3_linear_265_7560)"/>
<path d="M22.6394 48.1089C22.9486 42.286 18.4789 37.3148 12.6559 37.0056C6.83299 36.6964 1.86187 41.1661 1.55263 46.989C1.24338 52.812 5.71312 57.7831 11.5361 58.0923C17.359 58.4016 22.3301 53.9319 22.6394 48.1089Z" fill="url(#paint4_linear_265_7560)"/>
<path d="M23.7325 47.214C24.0361 41.3435 19.5231 36.3385 13.6526 36.0349C7.78213 35.7314 2.77707 40.2443 2.47352 46.1148C2.16997 51.9853 6.68288 56.9903 12.5534 57.2939C18.4239 57.5974 23.429 53.0845 23.7325 47.214Z" fill="url(#paint5_linear_265_7560)"/>
<path d="M24.9798 46.557C25.2765 40.6389 20.7194 35.6008 14.8013 35.3041C8.88319 35.0074 3.84509 39.5644 3.54839 45.4825C3.2517 51.4007 7.80877 56.4388 13.7269 56.7355C19.645 57.0321 24.6831 52.4751 24.9798 46.557Z" fill="url(#paint6_linear_265_7560)"/>
<path d="M26.3595 46.1523C26.6503 40.1866 22.0498 35.1148 16.0842 34.8241C10.1185 34.5333 5.04669 39.1338 4.75596 45.0995C4.46523 51.0651 9.06568 56.1369 15.0313 56.4277C20.997 56.7184 26.0688 52.1179 26.3595 46.1523Z" fill="url(#paint7_linear_265_7560)"/>
<path d="M27.8425 45.9626C28.1261 39.9493 23.4812 34.8447 17.468 34.5611C11.4547 34.2776 6.3501 38.9224 6.06652 44.9356C5.78294 50.9489 10.4278 56.0535 16.441 56.3371C22.4543 56.6207 27.5589 51.9758 27.8425 45.9626Z" fill="url(#paint8_linear_265_7560)"/>
<path d="M29.3912 45.9663C29.6663 39.9076 24.9777 34.773 18.919 34.4978C12.8602 34.2227 7.7256 38.9113 7.45048 44.97C7.17535 51.0288 11.8639 56.1634 17.9227 56.4385C23.9814 56.7137 29.116 52.0251 29.3912 45.9663Z" fill="url(#paint9_linear_265_7560)"/>
<path d="M30.9939 46.1709C31.2615 40.0646 26.5284 34.8974 20.422 34.6297C14.3157 34.3621 9.14856 39.0952 8.88088 45.2016C8.6132 51.3079 13.3464 56.4751 19.4527 56.7427C25.559 57.0104 30.7262 52.2772 30.9939 46.1709Z" fill="url(#paint10_linear_265_7560)"/>
<path d="M32.6089 46.5361C32.8668 40.3821 28.0871 35.1842 21.9331 34.9263C15.7791 34.6683 10.5812 39.448 10.3233 45.602C10.0654 51.756 14.8451 56.9539 20.9991 57.2118C27.1531 57.4698 32.3509 52.6901 32.6089 46.5361Z" fill="url(#paint11_linear_265_7560)"/>
<path d="M34.2171 47.0713C34.4662 40.8697 29.6408 35.6404 23.4392 35.3913C17.2376 35.1422 12.0083 39.9677 11.7592 46.1693C11.5101 52.3709 16.3356 57.6002 22.5372 57.8493C28.7388 58.0983 33.9681 53.2729 34.2171 47.0713Z" fill="url(#paint12_linear_265_7560)"/>
<path d="M35.7833 47.7428C36.0223 41.4935 31.15 36.2338 24.9008 35.9948C18.6516 35.7559 13.3919 40.6281 13.1529 46.8773C12.9139 53.1266 17.7862 58.3863 24.0354 58.6253C30.2846 58.8643 35.5444 53.992 35.7833 47.7428Z" fill="url(#paint13_linear_265_7560)"/>
<path d="M37.2869 48.5441C37.5156 42.2473 32.5963 36.9573 26.2995 36.7286C20.0027 36.4999 14.7127 41.4191 14.484 47.7159C14.2553 54.0128 19.1745 59.3028 25.4713 59.5315C31.7682 59.7602 37.0582 54.8409 37.2869 48.5441Z" fill="url(#paint14_linear_265_7560)"/>
<path d="M38.6877 49.4552C38.9049 43.1108 33.9377 37.7915 27.5932 37.5744C21.2487 37.3573 15.9295 42.3245 15.7124 48.669C15.4952 55.0135 20.4624 60.3327 26.8069 60.5498C33.1514 60.7669 38.4706 55.7997 38.6877 49.4552Z" fill="url(#paint15_linear_265_7560)"/>
<path d="M39.9617 50.4513C40.1658 44.0613 35.1512 38.7157 28.7613 38.5115C22.3713 38.3074 17.0257 43.322 16.8215 49.712C16.6173 56.1019 21.6319 61.4475 28.0219 61.6517C34.4119 61.8559 39.7575 56.8413 39.9617 50.4513Z" fill="url(#paint16_linear_265_7560)"/>
<path d="M41.0896 51.5379C41.2806 45.1003 36.2168 39.7267 29.7792 39.5356C23.3416 39.3446 17.968 44.4084 17.7769 50.846C17.5859 57.2836 22.6497 62.6572 29.0873 62.8483C35.5249 63.0393 40.8985 57.9755 41.0896 51.5379Z" fill="url(#paint17_linear_265_7560)"/>
<path d="M42.0516 52.7071C42.2282 46.2219 37.114 40.8214 30.6288 40.6447C24.1436 40.4681 18.7431 45.5823 18.5664 52.0675C18.3898 58.5527 23.504 63.9532 29.9892 64.1299C36.4744 64.3065 41.8749 59.1923 42.0516 52.7071Z" fill="url(#paint18_linear_265_7560)"/>
<path d="M43.0088 53.9737C43.1708 47.4409 38.0061 42.0137 31.4733 41.8518C24.9405 41.6898 19.5133 46.8544 19.3514 53.3873C19.1894 59.9201 24.354 65.3473 30.8869 65.5092C37.4197 65.6712 42.8469 60.5065 43.0088 53.9737Z" fill="url(#paint19_linear_265_7560)"/>
<path d="M43.976 55.2333C44.1219 48.6528 38.9056 43.2001 32.3252 43.0542C25.7448 42.9083 20.2921 48.1246 20.1462 54.705C20.0003 61.2854 25.2165 66.7381 31.7969 66.884C38.3774 67.0299 43.8301 61.8137 43.976 55.2333Z" fill="url(#paint20_linear_265_7560)"/>
<path d="M44.984 56.4536C45.1124 49.8257 39.8434 44.3485 33.2154 44.2201C26.5875 44.0917 21.1103 49.3606 20.9819 55.9886C20.8535 62.6166 26.1224 68.0937 32.7504 68.2222C39.3784 68.3506 44.8555 63.0816 44.984 56.4536Z" fill="url(#paint21_linear_265_7560)"/>
<path d="M46.0614 57.6112C46.172 50.9357 40.8502 45.4344 34.1747 45.3237C27.4992 45.213 21.9979 50.5348 21.8872 57.2103C21.7765 63.8859 27.0983 69.3872 33.7738 69.4979C40.4494 69.6085 45.9507 64.2867 46.0614 57.6112Z" fill="url(#paint22_linear_265_7560)"/>
<path d="M47.2271 58.654C47.3175 51.9332 41.9423 46.4116 35.2215 46.3213C28.5006 46.2309 22.979 51.606 22.8887 58.3269C22.7984 65.0478 28.1735 70.5694 34.8944 70.6597C41.6152 70.75 47.1368 65.3749 47.2271 58.654Z" fill="url(#paint23_linear_265_7560)"/>
<path d="M48.5344 59.5915C48.6041 52.8232 43.1738 47.2799 36.4055 47.2102C29.6372 47.1405 24.0938 52.5708 24.0241 59.3391C23.9544 66.1074 29.3848 71.6507 36.1531 71.7204C42.9214 71.7901 48.4647 66.3598 48.5344 59.5915Z" fill="url(#paint24_linear_265_7560)"/>
<path d="M50.0864 60.3679C50.1328 53.5522 44.6452 47.9894 37.8295 47.943C31.0137 47.8966 25.4509 53.3842 25.4045 60.1999C25.3581 67.0157 30.8457 72.5785 37.6614 72.6249C44.4772 72.6713 50.04 67.1837 50.0864 60.3679Z" fill="url(#paint25_linear_265_7560)"/>
<path d="M51.674 60.7993C51.6967 53.9363 46.1516 48.3542 39.2885 48.3315C32.4255 48.3087 26.8434 53.8539 26.8207 60.7169C26.7979 67.58 32.3431 73.162 39.2061 73.1848C46.0692 73.2075 51.6512 67.6624 51.674 60.7993Z" fill="url(#paint26_linear_265_7560)"/>
<path d="M40.7218 73.4026C47.6321 73.4026 53.234 67.8007 53.234 60.8905C53.234 53.9802 47.6321 48.3783 40.7218 48.3783C33.8116 48.3783 28.2097 53.9802 28.2097 60.8905C28.2097 67.8007 33.8116 73.4026 40.7218 73.4026Z" fill="url(#paint27_linear_265_7560)"/>
<path d="M42.2077 73.2922C49.1651 73.2606 54.7796 67.5949 54.7481 60.6375C54.7165 53.6801 49.0508 48.0656 42.0934 48.0972C35.136 48.1288 29.5215 53.7945 29.5531 60.7519C29.5846 67.7093 35.2503 73.3238 42.2077 73.2922Z" fill="url(#paint28_linear_265_7560)"/>
<path d="M43.5936 72.8767C50.598 72.8155 56.2267 67.0878 56.1656 60.0834C56.1044 53.079 50.3767 47.4503 43.3723 47.5115C36.3679 47.5726 30.7392 53.3003 30.8003 60.3047C30.8615 67.3091 36.5892 72.9378 43.5936 72.8767Z" fill="url(#paint29_linear_265_7560)"/>
<path d="M44.8719 72.1507C51.921 72.0572 57.5596 66.2669 57.4661 59.2178C57.3726 52.1687 51.5824 46.5301 44.5333 46.6236C37.4841 46.7171 31.8455 52.5073 31.939 59.5564C32.0325 66.6056 37.8228 72.2442 44.8719 72.1507Z" fill="url(#paint30_linear_265_7560)"/>
<path d="M46.0027 71.1384C53.0985 71.0096 58.7463 65.1529 58.6175 58.0571C58.4887 50.9614 52.632 45.3136 45.5362 45.4424C38.4405 45.5712 32.7926 51.4278 32.9215 58.5236C33.0503 65.6194 38.9069 71.2672 46.0027 71.1384Z" fill="url(#paint31_linear_265_7560)"/>
<path d="M46.9496 69.8455C54.0918 69.6784 59.7462 63.7531 59.5791 56.6109C59.4121 49.4687 53.4868 43.8143 46.3446 43.9814C39.2024 44.1484 33.548 50.0737 33.715 57.2159C33.8821 64.3581 39.8074 70.0125 46.9496 69.8455Z" fill="url(#paint32_linear_265_7560)"/>
<path d="M47.6511 68.3686C54.8394 68.1603 60.4978 62.1641 60.2895 54.9758C60.0812 47.7875 54.085 42.1291 46.8967 42.3375C39.7084 42.5458 34.05 48.5419 34.2583 55.7302C34.4666 62.9185 40.4628 68.5769 47.6511 68.3686Z" fill="url(#paint33_linear_265_7560)"/>
<path d="M48.0837 66.9567C55.3178 66.7041 60.9775 60.6349 60.7248 53.4008C60.4722 46.1667 54.403 40.5071 47.1689 40.7597C39.9348 41.0123 34.2752 47.0815 34.5278 54.3156C34.7804 61.5497 40.8496 67.2094 48.0837 66.9567Z" fill="url(#paint34_linear_265_7560)"/>
<path d="M48.3478 65.5166C55.6274 65.2166 61.2854 59.0722 60.9854 51.7926C60.6854 44.5131 54.5409 38.8551 47.2614 39.1551C39.9818 39.4551 34.3238 45.5995 34.6238 52.8791C34.9238 60.1586 41.0683 65.8166 48.3478 65.5166Z" fill="url(#paint35_linear_265_7560)"/>
<path d="M48.4902 64.04C55.8146 63.6869 61.4659 57.463 61.1129 50.1386C60.7598 42.8142 54.5359 37.1628 47.2115 37.5159C39.8871 37.869 34.2357 44.0929 34.5888 51.4173C34.9419 58.7417 41.1658 64.3931 48.4902 64.04Z" fill="url(#paint36_linear_265_7560)"/>
<path d="M48.5251 62.564C55.8917 62.1548 61.5317 55.8512 61.1225 48.4845C60.7132 41.1179 54.4096 35.4779 47.043 35.8872C39.6763 36.2964 34.0363 42.6001 34.4456 49.9667C34.8549 57.3333 41.1585 62.9733 48.5251 62.564Z" fill="url(#paint37_linear_265_7560)"/>
<path d="M48.5066 61.0862C55.9168 60.6148 61.5418 54.2255 61.0704 46.8153C60.599 39.4051 54.2097 33.7801 46.7995 34.2516C39.3893 34.723 33.7643 41.1123 34.2357 48.5224C34.7071 55.9326 41.0964 61.5576 48.5066 61.0862Z" fill="url(#paint38_linear_265_7560)"/>
<path d="M48.4696 59.6598C55.9225 59.1203 61.5269 52.6413 60.9874 45.1884C60.448 37.7355 53.9689 32.1311 46.516 32.6706C39.0632 33.21 33.4587 39.6891 33.9982 47.142C34.5377 54.5948 41.0167 60.1993 48.4696 59.6598Z" fill="url(#paint39_linear_265_7560)"/>
<path d="M48.4746 58.2756C55.969 57.6608 61.546 51.0869 60.9311 43.5925C60.3163 36.0982 53.7425 30.5212 46.2481 31.136C38.7537 31.7508 33.1767 38.3247 33.7916 45.8191C34.4064 53.3135 40.9802 58.8904 48.4746 58.2756Z" fill="url(#paint40_linear_265_7560)"/>
<path d="M48.5279 56.8123C56.0625 56.116 61.6061 49.4434 60.9098 41.9088C60.2135 34.3741 53.5409 28.8305 46.0063 29.5269C38.4716 30.2232 32.928 36.8957 33.6243 44.4304C34.3207 51.965 40.9932 57.5086 48.5279 56.8123Z" fill="url(#paint41_linear_265_7560)"/>
<path d="M48.6516 55.2915C56.2249 54.5048 61.7265 47.7278 60.9399 40.1546C60.1532 32.5814 53.3762 27.0798 45.803 27.8664C38.2298 28.653 32.7282 35.43 33.5148 43.0032C34.3014 50.5765 41.0784 56.0781 48.6516 55.2915Z" fill="url(#paint42_linear_265_7560)"/>
<path d="M48.8714 53.7416C56.4811 52.8544 61.9307 45.9664 61.0435 38.3568C60.1563 30.7471 53.2683 25.2975 45.6586 26.1847C38.049 27.0719 32.5994 33.96 33.4866 41.5696C34.3738 49.1792 41.2618 54.6288 48.8714 53.7416Z" fill="url(#paint43_linear_265_7560)"/>
<path d="M49.2089 52.191C56.8502 51.1931 62.2358 44.1897 61.238 36.5483C60.2401 28.907 53.2367 23.5214 45.5953 24.5193C37.954 25.5171 32.5684 32.5206 33.5662 40.1619C34.5641 47.8033 41.5676 53.1889 49.2089 52.191Z" fill="url(#paint44_linear_265_7560)"/>
<path d="M49.6869 50.6673C57.3587 49.5454 62.6685 42.4167 61.5465 34.7449C60.4246 27.073 53.2959 21.7633 45.6241 22.8853C37.9522 24.0072 32.6425 31.1359 33.7645 38.8077C34.8864 46.4795 42.0151 51.7893 49.6869 50.6673Z" fill="url(#paint45_linear_265_7560)"/>
<path d="M50.3183 49.2056C58.0166 47.9463 63.2365 40.6848 61.9772 32.9865C60.7179 25.2882 53.4564 20.0683 45.7581 21.3276C38.0598 22.5868 32.8399 29.8484 34.0992 37.5467C35.3585 45.245 42.62 50.4648 50.3183 49.2056Z" fill="url(#paint46_linear_265_7560)"/>
<path d="M51.1354 47.8305C58.855 46.4178 63.9678 39.0147 62.5552 31.295C61.1426 23.5754 53.7394 18.4626 46.0198 19.8752C38.3002 21.2879 33.1873 28.691 34.6 36.4107C36.0126 44.1303 43.4158 49.2431 51.1354 47.8305Z" fill="url(#paint47_linear_265_7560)"/>
<path d="M52.1595 46.5541C59.8938 44.9693 64.879 37.4147 63.2942 29.6804C61.7094 21.9461 54.1547 16.9609 46.4204 18.5457C38.6861 20.1305 33.7009 27.6852 35.2858 35.4195C36.8706 43.1538 44.4252 48.1389 52.1595 46.5541Z" fill="url(#paint48_linear_265_7560)"/>
<path d="M53.4199 45.41C61.1604 43.6315 65.9935 35.9148 64.215 28.1743C62.4365 20.4338 54.7198 15.6006 46.9793 17.3791C39.2388 19.1576 34.4056 26.8743 36.1841 34.6148C37.9627 42.3553 45.6793 47.1885 53.4199 45.41Z" fill="url(#paint49_linear_265_7560)"/>
<path d="M54.929 44.4357C62.6653 42.4407 67.3196 34.5519 65.3246 26.8156C63.3296 19.0793 55.4408 14.425 47.7045 16.42C39.9682 18.415 35.3139 26.3038 37.3089 34.0401C39.3039 41.7764 47.1927 46.4307 54.929 44.4357Z" fill="url(#paint50_linear_265_7560)"/>
<path d="M56.7236 43.6311C64.4398 41.3922 68.8801 33.322 66.6413 25.6058C64.4024 17.8896 56.3322 13.4493 48.616 15.6881C40.8998 17.927 36.4595 25.9972 38.6983 33.7134C40.9372 41.4296 49.0074 45.8699 56.7236 43.6311Z" fill="url(#paint51_linear_265_7560)"/>
<path d="M58.8163 43.0448C66.4981 40.534 70.69 32.2714 68.1792 24.5896C65.6684 16.9079 57.4057 12.716 49.724 15.2268C42.0422 17.7376 37.8503 26.0002 40.3611 33.682C42.8719 41.3637 51.1346 45.5556 58.8163 43.0448Z" fill="url(#paint52_linear_265_7560)"/>
<path d="M60.9931 42.695C68.619 39.8801 72.5192 31.4162 69.7043 23.7903C66.8895 16.1643 58.4255 12.2642 50.7996 15.0791C43.1736 17.8939 39.2735 26.3579 42.0884 33.9838C44.9032 41.6097 53.3672 45.5099 60.9931 42.695Z" fill="url(#paint53_linear_265_7560)"/>
<path d="M63.1008 42.5497C70.6446 39.3971 74.2045 30.726 71.0519 23.1821C67.8993 15.6383 59.2282 12.0785 51.6844 15.2311C44.1406 18.3836 40.5807 27.0547 43.7333 34.5986C46.8858 42.1424 55.557 45.7022 63.1008 42.5497Z" fill="url(#paint54_linear_265_7560)"/>
<path d="M65.142 42.6104C72.574 39.0909 75.7458 30.2129 72.2263 22.7809C68.7069 15.3489 59.8289 12.1771 52.3969 15.6965C44.9648 19.216 41.7931 28.094 45.3125 35.526C48.832 42.958 57.7099 46.1298 65.142 42.6104Z" fill="url(#paint55_linear_265_7560)"/>
<path d="M70.6347 40.2206C76.4828 34.3725 76.4828 24.8908 70.6347 19.0427C64.7866 13.1946 55.305 13.1946 49.4569 19.0427C43.6088 24.8908 43.6088 34.3725 49.4569 40.2206C55.305 46.0687 64.7866 46.0687 70.6347 40.2206Z" fill="url(#paint56_linear_265_7560)"/>
<path d="M71.8671 40.967C77.7486 35.0856 77.7486 25.5498 71.8671 19.6683C65.9857 13.7869 56.4499 13.7869 50.5685 19.6683C44.687 25.5498 44.687 35.0856 50.5685 40.967C56.4499 46.8485 65.9857 46.8485 71.8671 40.967Z" fill="url(#paint57_linear_265_7560)"/>
<path d="M73.0074 41.8953C78.9207 35.982 78.9207 26.3946 73.0074 20.4813C67.094 14.5679 57.5066 14.5679 51.5933 20.4813C45.68 26.3946 45.68 35.982 51.5933 41.8953C57.5066 47.8086 67.094 47.8086 73.0074 41.8953Z" fill="url(#paint58_linear_265_7560)"/>
<path d="M74.0643 42.9932C80.011 37.0465 80.011 27.405 74.0643 21.4583C68.1176 15.5116 58.4761 15.5116 52.5294 21.4583C46.5827 27.405 46.5827 37.0465 52.5294 42.9932C58.4761 48.9399 68.1176 48.9399 74.0643 42.9932Z" fill="url(#paint59_linear_265_7560)"/>
<path d="M75.0491 44.236C81.0291 38.2559 81.0291 28.5603 75.0491 22.5802C69.069 16.6001 59.3734 16.6001 53.3933 22.5802C47.4132 28.5603 47.4132 38.2559 53.3933 44.236C59.3734 50.216 69.069 50.216 75.0491 44.236Z" fill="url(#paint60_linear_265_7560)"/>
<path d="M75.9635 45.6138C81.977 39.6004 81.977 29.8507 75.9635 23.8372C69.9501 17.8238 60.2004 17.8238 54.1869 23.8372C48.1735 29.8507 48.1735 39.6004 54.1869 45.6138C60.2004 51.6273 69.9501 51.6273 75.9635 45.6138Z" fill="url(#paint61_linear_265_7560)"/>
<path d="M76.8205 47.0888C82.8673 41.0419 82.8673 31.2381 76.8205 25.1913C70.7737 19.1445 60.9698 19.1445 54.923 25.1913C48.8762 31.2381 48.8762 41.0419 54.923 47.0888C60.9699 53.1356 70.7737 53.1356 76.8205 47.0888Z" fill="url(#paint62_linear_265_7560)"/>
<path d="M77.6206 48.6576C83.7008 42.5774 83.7008 32.7195 77.6206 26.6393C71.5404 20.5591 61.6825 20.5591 55.6023 26.6393C49.5221 32.7195 49.5221 42.5774 55.6023 48.6576C61.6825 54.7378 71.5404 54.7378 77.6206 48.6576Z" fill="url(#paint63_linear_265_7560)"/>
<path d="M78.3789 50.2916C84.4925 44.1781 84.4925 34.266 78.3789 28.1524C72.2654 22.0389 62.3533 22.0389 56.2397 28.1524C50.1262 34.266 50.1262 44.1781 56.2397 50.2916C62.3533 56.4052 72.2654 56.4052 78.3789 50.2916Z" fill="url(#paint64_linear_265_7560)"/>
<path d="M79.1028 51.9773C85.2497 45.8303 85.2497 35.8641 79.1028 29.7172C72.9558 23.5703 62.9896 23.5703 56.8427 29.7172C50.6958 35.8641 50.6958 45.8303 56.8427 51.9773C62.9897 58.1242 72.9558 58.1242 79.1028 51.9773Z" fill="url(#paint65_linear_265_7560)"/>
<path d="M79.7928 53.683C85.9716 47.5042 85.9716 37.4864 79.7928 31.3076C73.614 25.1288 63.5962 25.1288 57.4174 31.3076C51.2386 37.4864 51.2386 47.5042 57.4174 53.683C63.5962 59.8618 73.614 59.8618 79.7928 53.683Z" fill="url(#paint66_linear_265_7560)"/>
<path d="M80.4617 55.4084C86.6739 49.1962 86.6739 39.1243 80.4617 32.9121C74.2496 26.7 64.1776 26.7 57.9655 32.9121C51.7533 39.1243 51.7533 49.1962 57.9655 55.4084C64.1776 61.6206 74.2496 61.6206 80.4617 55.4084Z" fill="url(#paint67_linear_265_7560)"/>
<path d="M81.122 57.1184C87.3675 50.8728 87.3675 40.7468 81.122 34.5012C74.8764 28.2557 64.7504 28.2557 58.5049 34.5012C52.2593 40.7468 52.2593 50.8728 58.5049 57.1184C64.7504 63.3639 74.8764 63.3639 81.122 57.1184Z" fill="url(#paint68_linear_265_7560)"/>
<path d="M84.6791 54.8367C88.7683 46.9546 85.6935 37.2499 77.8114 33.1607C69.9292 29.0715 60.2245 32.1463 56.1353 40.0284C52.0461 47.9106 55.1209 57.6152 63.0031 61.7045C70.8852 65.7937 80.5899 62.7189 84.6791 54.8367Z" fill="url(#paint69_linear_265_7560)"/>
<path d="M85.5241 56.1235C89.4529 48.1076 86.1395 38.4245 78.1235 34.4958C70.1076 30.5671 60.4245 33.8805 56.4958 41.8964C52.5671 49.9124 55.8805 59.5954 63.8964 63.5241C71.9124 67.4528 81.5954 64.1395 85.5241 56.1235Z" fill="url(#paint70_linear_265_7560)"/>
<path d="M86.343 57.3548C90.1257 49.2168 86.595 39.5532 78.4571 35.7705C70.3191 31.9878 60.6555 35.5184 56.8728 43.6564C53.0901 51.7944 56.6207 61.458 64.7587 65.2407C72.8967 69.0234 82.5603 65.4927 86.343 57.3548Z" fill="url(#paint71_linear_265_7560)"/>
<path d="M87.1689 58.5343C90.8209 50.2852 87.0943 40.6375 78.8452 36.9855C70.5961 33.3334 60.9484 37.06 57.2963 45.3091C53.6443 53.5582 57.3709 63.2059 65.62 66.858C73.8691 70.51 83.5168 66.7834 87.1689 58.5343Z" fill="url(#paint72_linear_265_7560)"/>
<path d="M88.0069 59.6338C91.5407 51.2844 87.6369 41.6513 79.2875 38.1175C70.9382 34.5837 61.305 38.4875 57.7712 46.8369C54.2374 55.1862 58.1412 64.8194 66.4906 68.3532C74.8399 71.887 84.4731 67.9832 88.0069 59.6338Z" fill="url(#paint73_linear_265_7560)"/>
<path d="M88.8667 60.6216C92.294 52.177 88.2267 42.5529 79.7821 39.1257C71.3375 35.6984 61.7134 39.7657 58.2861 48.2103C54.8589 56.6549 58.9262 66.279 67.3708 69.7062C75.8154 73.1335 85.4394 69.0662 88.8667 60.6216Z" fill="url(#paint74_linear_265_7560)"/>
<path d="M89.7558 61.4781C93.0864 52.9442 88.8684 43.3261 80.3345 39.9955C71.8007 36.6648 62.1826 40.8829 58.8519 49.4167C55.5213 57.9506 59.7393 67.5687 68.2732 70.8993C76.8071 74.23 86.4251 70.0119 89.7558 61.4781Z" fill="url(#paint75_linear_265_7560)"/>
<path d="M90.7683 62.2653C94.011 53.6472 89.6535 44.0321 81.0354 40.7893C72.4173 37.5466 62.8022 41.9041 59.5594 50.5222C56.3167 59.1403 60.6742 68.7554 69.2923 71.9982C77.9104 75.2409 87.5255 70.8834 90.7683 62.2653Z" fill="url(#paint76_linear_265_7560)"/>
<path d="M92.1377 63.0972C95.3016 54.3996 90.8157 44.7839 82.1182 41.62C73.4206 38.456 63.8049 42.9419 60.641 51.6395C57.477 60.3371 61.9629 69.9528 70.6605 73.1167C79.3581 76.2806 88.9738 71.7947 92.1377 63.0972Z" fill="url(#paint77_linear_265_7560)"/>
<path d="M93.6538 63.7016C96.7452 54.928 92.1389 45.3094 83.3652 42.218C74.5915 39.1266 64.9729 43.7329 61.8815 52.5066C58.7901 61.2803 63.3965 70.8989 72.1702 73.9903C80.9438 77.0817 90.5624 72.4753 93.6538 63.7016Z" fill="url(#paint78_linear_265_7560)"/>
<path d="M95.2574 64.0423C98.2828 55.1958 93.5638 45.5717 84.7173 42.5463C75.8707 39.5209 66.2466 44.2398 63.2212 53.0864C60.1958 61.9329 64.9148 71.5571 73.7613 74.5825C82.6079 77.6079 92.232 72.8889 95.2574 64.0423Z" fill="url(#paint79_linear_265_7560)"/>
<path d="M96.9087 64.0485C99.8725 55.1336 95.0483 45.504 86.1334 42.5402C77.2185 39.5763 67.5889 44.4006 64.6251 53.3154C61.6612 62.2303 66.4855 71.8599 75.4003 74.8237C84.3152 77.7876 93.9448 72.9633 96.9087 64.0485Z" fill="url(#paint80_linear_265_7560)"/>
<path d="M98.6271 63.6853C101.535 54.7025 96.6111 45.0629 87.6283 42.1546C78.6455 39.2464 69.0059 44.1707 66.0977 53.1535C63.1894 62.1362 68.1137 71.7758 77.0965 74.6841C86.0793 77.5924 95.7189 72.6681 98.6271 63.6853Z" fill="url(#paint81_linear_265_7560)"/>
<path d="M100.214 63.0453C103.071 53.9965 98.051 44.3453 89.0022 41.4887C79.9533 38.6321 70.3021 43.652 67.4455 52.7008C64.5889 61.7497 69.6088 71.4009 78.6576 74.2575C87.7065 77.114 97.3577 72.0942 100.214 63.0453Z" fill="url(#paint82_linear_265_7560)"/>
<path d="M101.503 62.2004C104.312 53.0872 99.2013 43.4225 90.0882 40.6137C80.975 37.8049 71.3103 42.9156 68.5015 52.0288C65.6927 61.142 70.8034 70.8067 79.9166 73.6155C89.0297 76.4243 98.6944 71.3136 101.503 62.2004Z" fill="url(#paint83_linear_265_7560)"/>
<path d="M102.543 61.1918C105.31 52.0164 100.115 42.3355 90.9396 39.5688C81.7642 36.8021 72.0833 41.9973 69.3166 51.1727C66.5498 60.348 71.7451 70.029 80.9204 72.7957C90.0958 75.5624 99.7768 70.3672 102.543 61.1918Z" fill="url(#paint84_linear_265_7560)"/>
<path d="M103.328 59.9905C106.054 50.7536 100.775 41.0561 91.5384 38.3306C82.3015 35.605 72.6041 40.8834 69.8785 50.1203C67.1529 59.3572 72.4314 69.0547 81.6683 71.7803C90.9052 74.5059 100.603 69.2274 103.328 59.9905Z" fill="url(#paint85_linear_265_7560)"/>
<path d="M103.912 58.6604C106.601 49.3636 101.244 39.6474 91.9473 36.9587C82.6504 34.2701 72.9343 39.6271 70.2456 48.9239C67.5569 58.2207 72.9139 67.9369 82.2107 70.6256C91.5076 73.3143 101.224 67.9573 103.912 58.6604Z" fill="url(#paint86_linear_265_7560)"/>
<path d="M104.312 57.1978C106.966 47.8441 101.535 38.1101 92.1811 35.4562C82.8274 32.8023 73.0933 38.2336 70.4395 47.5872C67.7856 56.9409 73.2169 66.675 82.5705 69.3288C91.9242 71.9827 101.658 66.5515 104.312 57.1978Z" fill="url(#paint87_linear_265_7560)"/>
<path d="M104.557 55.6289C107.18 46.2173 101.676 36.4618 92.2646 33.8394C82.853 31.217 73.0975 36.7206 70.4751 46.1322C67.8527 55.5437 73.3563 65.2992 82.7679 67.9216C92.1794 70.5441 101.935 65.0404 104.557 55.6289Z" fill="url(#paint88_linear_265_7560)"/>
<path d="M104.664 53.9582C107.256 44.4893 101.682 34.7119 92.2129 32.1197C82.744 29.5276 72.9666 35.1022 70.3744 44.5711C67.7823 54.04 73.3569 63.8174 82.8258 66.4095C92.2947 69.0017 102.072 63.427 104.664 53.9582Z" fill="url(#paint89_linear_265_7560)"/>
<path d="M104.68 52.2251C107.245 42.6999 101.602 32.899 92.0768 30.3343C82.5516 27.7695 72.7507 33.4121 70.1859 42.9373C67.6212 52.4625 73.2638 62.2634 82.789 64.8282C92.3142 67.3929 102.115 61.7503 104.68 52.2251Z" fill="url(#paint90_linear_265_7560)"/>
<path d="M104.612 50.4337C107.151 40.8526 101.442 31.0277 91.8607 28.4891C82.2797 25.9505 72.4548 31.6596 69.9162 41.2406C67.3776 50.8217 73.0867 60.6466 82.6677 63.1852C92.2488 65.7238 102.074 60.0147 104.612 50.4337Z" fill="url(#paint91_linear_265_7560)"/>
<path d="M104.507 48.6243C107.022 38.9883 101.25 29.1377 91.614 26.6223C81.978 24.1069 72.1274 29.8793 69.612 39.5153C67.0967 49.1513 72.869 59.0019 82.505 61.5173C92.141 64.0326 101.992 58.2602 104.507 48.6243Z" fill="url(#paint92_linear_265_7560)"/>
<path d="M104.377 46.7911C106.87 37.1007 101.036 27.2237 91.3454 24.7302C81.6549 22.2367 71.778 28.071 69.2845 37.7614C66.791 47.4518 72.6252 57.3288 82.3157 59.8223C92.0061 62.3158 101.883 56.4815 104.377 46.7911Z" fill="url(#paint93_linear_265_7560)"/>
<path d="M104.244 44.9679C106.717 35.2256 100.823 25.3236 91.081 22.8512C81.3387 20.3788 71.4368 26.2722 68.9643 36.0144C66.4919 45.7567 72.3853 55.6587 82.1276 58.1311C91.8699 60.6035 101.772 54.7101 104.244 44.9679Z" fill="url(#paint94_linear_265_7560)"/>
<path d="M104.137 43.1567C106.589 33.3605 100.634 23.4317 90.8383 20.9802C81.042 18.5286 71.1133 24.4826 68.6617 34.2789C66.2102 44.0751 72.1642 54.0039 81.9604 56.4554C91.7566 58.907 101.685 52.9529 104.137 43.1567Z" fill="url(#paint95_linear_265_7560)"/>
<path d="M104.101 41.3993C106.534 31.5501 100.523 21.5927 90.6737 19.1589C80.8244 16.7251 70.867 22.7365 68.4332 32.5858C65.9994 42.435 72.0108 52.3924 81.8601 54.8262C91.7094 57.26 101.667 51.2486 104.101 41.3993Z" fill="url(#paint96_linear_265_7560)"/>
<path d="M104.154 39.7091C106.572 29.8072 100.504 19.8204 90.6023 17.4029C80.7004 14.9854 70.7136 21.0527 68.2962 30.9546C65.8787 40.8565 71.946 50.8433 81.8479 53.2608C91.7497 55.6783 101.737 49.611 104.154 39.7091Z" fill="url(#paint97_linear_265_7560)"/>
<path d="M104.308 38.0884C106.709 28.1339 100.585 18.1179 90.631 15.717C80.6765 13.3161 70.6605 19.4395 68.2596 29.394C65.8587 39.3485 71.9821 49.3645 81.9366 51.7653C91.8911 54.1662 101.907 48.0428 104.308 38.0884Z" fill="url(#paint98_linear_265_7560)"/>
<path d="M104.601 36.5777C106.987 26.5711 100.809 16.525 90.8026 14.1393C80.796 11.7535 70.7499 17.9314 68.3642 27.9381C65.9784 37.9447 72.1563 47.9907 82.163 50.3765C92.1696 52.7623 102.216 46.5843 104.601 36.5777Z" fill="url(#paint99_linear_265_7560)"/>
<path d="M105.068 35.1921C107.44 25.1337 101.209 15.0568 91.1506 12.6847C81.0922 10.3125 71.0153 16.5435 68.6431 26.6018C66.271 36.6602 72.5019 46.7371 82.5603 49.1093C92.6187 51.4814 102.696 45.2505 105.068 35.1921Z" fill="url(#paint100_linear_265_7560)"/>
<path d="M105.724 33.9449C108.083 23.8373 101.802 13.7307 91.6948 11.3711C81.5872 9.01158 71.4806 15.2926 69.121 25.4002C66.7614 35.5078 73.0425 45.6145 83.1501 47.974C93.2577 50.3336 103.364 44.0525 105.724 33.9449Z" fill="url(#paint101_linear_265_7560)"/>
<path d="M106.6 32.8547C108.948 22.6957 102.615 12.5575 92.456 10.2102C82.297 7.863 72.1588 14.1956 69.8116 24.3545C67.4643 34.5135 73.7969 44.6517 83.9559 46.999C94.1148 49.3462 104.253 43.0136 106.6 32.8547Z" fill="url(#paint102_linear_265_7560)"/>
<path d="M107.721 31.9482C110.058 21.7383 103.675 11.5675 93.4651 9.23105C83.2553 6.89457 73.0845 13.2772 70.748 23.487C68.4115 33.6968 74.7941 43.8676 85.004 46.2041C95.2138 48.5406 105.385 42.158 107.721 31.9482Z" fill="url(#paint103_linear_265_7560)"/>
<path d="M109.148 31.2572C111.474 20.9965 105.041 10.7933 94.7804 8.4678C84.5197 6.14227 74.3165 12.575 71.991 22.8357C69.6654 33.0965 76.0982 43.2996 86.3589 45.6252C96.6196 47.9507 106.823 41.518 109.148 31.2572Z" fill="url(#paint104_linear_265_7560)"/>
<path d="M110.749 30.9935C113.065 20.6823 106.584 10.4457 96.2723 8.12957C85.9611 5.8134 75.7246 12.2947 73.4084 22.6059C71.0923 32.9171 77.5735 43.1536 87.8847 45.4698C98.196 47.786 108.432 41.3047 110.749 30.9935Z" fill="url(#paint105_linear_265_7560)"/>
<path d="M112.379 31.114C114.685 20.7523 108.155 10.4826 97.7938 8.17593C87.432 5.8693 77.1623 12.3992 74.8557 22.761C72.5491 33.1227 79.079 43.3924 89.4407 45.699C99.8024 48.0057 110.072 41.4757 112.379 31.114Z" fill="url(#paint106_linear_265_7560)"/>
<path d="M113.957 31.5685C116.254 21.1563 109.675 10.8535 99.263 8.55661C88.8508 6.25971 78.548 12.8385 76.2511 23.2507C73.9542 33.6629 80.533 43.9657 90.9452 46.2626C101.357 48.5595 111.66 41.9807 113.957 31.5685Z" fill="url(#paint107_linear_265_7560)"/>
<path d="M115.41 32.2885C117.699 21.8282 111.074 11.4935 100.614 9.20513C90.1537 6.91678 79.819 13.5414 77.5306 24.0016C75.2423 34.4618 81.8669 44.7966 92.3271 47.085C102.787 49.3733 113.122 42.7487 115.41 32.2885Z" fill="url(#paint108_linear_265_7560)"/>
<path d="M116.785 33.1482C119.067 22.6383 112.397 12.2684 101.887 9.98652C91.3767 7.70459 81.0068 14.3747 78.7249 24.8846C76.443 35.3946 83.1131 45.7644 93.623 48.0464C104.133 50.3283 114.503 43.6582 116.785 33.1482Z" fill="url(#paint109_linear_265_7560)"/>
<path d="M118.067 34.0954C120.343 23.5358 113.627 13.1309 103.067 10.8556C92.5076 8.58023 82.1028 15.296 79.8274 25.8556C77.5521 36.4152 84.2678 46.8201 94.8274 49.0954C105.387 51.3708 115.792 44.6551 118.067 34.0954Z" fill="url(#paint110_linear_265_7560)"/>
<path d="M119.28 35.1211C121.548 24.5118 114.787 14.0721 104.177 11.8034C93.5681 9.53481 83.1284 16.2963 80.8598 26.9057C78.5912 37.515 85.3526 47.9547 95.962 50.2233C106.571 52.492 117.011 45.7305 119.28 35.1211Z" fill="url(#paint111_linear_265_7560)"/>
<path d="M120.429 36.2136C122.691 25.5545 115.883 15.0801 105.224 12.8183C94.5653 10.5565 84.0909 17.3639 81.8291 28.023C79.5674 38.682 86.3747 49.1565 97.0338 51.4182C107.693 53.68 118.167 46.8726 120.429 36.2136Z" fill="url(#paint112_linear_265_7560)"/>
<path d="M121.538 37.3675C123.794 26.6591 116.943 16.1489 106.234 13.8923C95.526 11.6357 85.0158 18.4872 82.7592 29.1956C80.5026 39.904 87.3541 50.4142 98.0625 52.6709C108.771 54.9275 119.281 48.0759 121.538 37.3675Z" fill="url(#paint113_linear_265_7560)"/>
<path d="M122.609 38.5615C124.86 27.8037 117.964 17.2578 107.207 15.0065C96.449 12.7551 85.903 19.6509 83.6517 30.4087C81.4004 41.1664 88.2962 51.7124 99.0539 53.9637C109.812 56.2151 120.358 49.3192 122.609 38.5615Z" fill="url(#paint114_linear_265_7560)"/>
<path d="M123.64 39.7906C125.886 28.9856 118.947 18.4061 108.142 16.1606C97.3368 13.9151 86.7573 20.854 84.5118 31.659C82.2664 42.464 89.2052 53.0435 100.01 55.2889C110.815 57.5344 121.395 50.5956 123.64 39.7906Z" fill="url(#paint115_linear_265_7560)"/>
<path d="M124.675 41.0421C126.916 30.1882 119.935 19.572 109.081 17.3301C98.2271 15.0883 87.6108 22.0698 85.369 32.9238C83.1272 43.7777 90.1087 54.394 100.963 56.6358C111.817 58.8776 122.433 51.8961 124.675 41.0421Z" fill="url(#paint116_linear_265_7560)"/>
<path d="M125.703 42.2986C127.941 31.3957 120.916 20.7429 110.014 18.5048C99.1106 16.2668 88.4577 23.291 86.2197 34.1939C83.9817 45.0969 91.0059 55.7497 101.909 57.9878C112.812 60.2258 123.465 53.2015 125.703 42.2986Z" fill="url(#paint117_linear_265_7560)"/>
<path d="M126.73 43.5462C128.964 32.5943 121.897 21.9049 110.945 19.6708C99.9932 17.4366 89.3038 24.5037 87.0696 35.4556C84.8354 46.4075 91.9025 57.0969 102.854 59.3311C113.806 61.5652 124.496 54.4981 126.73 43.5462Z" fill="url(#paint118_linear_265_7560)"/>
<path d="M127.77 44.7759C130.001 33.775 122.891 23.0491 111.89 20.819C100.889 18.5888 90.163 25.6989 87.9328 36.6998C85.7027 47.7006 92.8127 58.4265 103.814 60.6566C114.814 62.8868 125.54 55.7767 127.77 44.7759Z" fill="url(#paint119_linear_265_7560)"/>
<path d="M128.835 45.9684C131.061 34.9186 123.908 24.1564 112.858 21.9303C101.808 19.7043 91.0457 26.8574 88.8197 37.9073C86.5937 48.9571 93.7468 59.7194 104.797 61.9454C115.846 64.1714 126.609 57.0183 128.835 45.9684Z" fill="url(#paint120_linear_265_7560)"/>
<path d="M129.949 47.1297C132.173 36.0312 124.979 25.2315 113.88 23.0077C102.782 20.784 91.9822 27.9784 89.7584 39.0768C87.5347 50.1753 94.7291 60.9751 105.828 63.1988C116.926 65.4225 127.726 58.2281 129.949 47.1297Z" fill="url(#paint121_linear_265_7560)"/>
<path d="M131.108 48.231C133.329 37.086 126.095 26.2508 114.95 24.0299C103.805 21.809 92.9699 29.0433 90.749 40.1883C88.5281 51.3333 95.7624 62.1684 106.907 64.3894C118.052 66.6103 128.888 59.3759 131.108 48.231Z" fill="url(#paint122_linear_265_7560)"/>
<path d="M132.325 49.2634C134.543 38.0698 127.267 27.1972 116.074 24.9788C104.88 22.7604 94.0077 30.0362 91.7893 41.2298C89.5709 52.4234 96.8467 63.2959 108.04 65.5144C119.234 67.7328 130.106 60.457 132.325 49.2634Z" fill="url(#paint123_linear_265_7560)"/>
<path d="M133.605 50.208C135.821 38.9658 128.503 28.0559 117.261 25.8401C106.019 23.6243 95.1091 30.9416 92.8933 42.1838C90.6774 53.426 97.9948 64.3359 109.237 66.5517C120.479 68.7675 131.389 61.4502 133.605 50.208Z" fill="url(#paint124_linear_265_7560)"/>
<path d="M134.987 51.0723C137.203 39.7818 129.845 28.8334 118.555 26.6183C107.265 24.4032 96.3162 31.7602 94.1011 43.0507C91.886 54.3411 99.243 65.2895 110.533 67.5046C121.824 69.7197 132.772 62.3627 134.987 51.0723Z" fill="url(#paint125_linear_265_7560)"/>
<path d="M136.436 51.8181C138.648 40.4791 131.249 29.4935 119.91 27.2812C108.571 25.0689 97.5855 32.4676 95.3732 43.8067C93.1609 55.1457 100.56 66.1313 111.899 68.3436C123.238 70.5559 134.223 63.1572 136.436 51.8181Z" fill="url(#paint126_linear_265_7560)"/>
<path d="M138.019 52.4289C140.23 41.0416 132.791 30.0176 121.404 27.8062C110.017 25.5948 98.9927 33.0333 96.7813 44.4207C94.5699 55.808 102.008 66.832 113.396 69.0434C124.783 71.2548 135.807 63.8163 138.019 52.4289Z" fill="url(#paint127_linear_265_7560)"/>
<path d="M139.632 52.818C141.842 41.3823 134.363 30.32 122.928 28.1096C111.492 25.8992 100.43 33.3777 98.2195 44.8133C96.0091 56.2489 103.488 67.3112 114.923 69.5216C126.359 71.7321 137.421 64.2536 139.632 52.818Z" fill="url(#paint128_linear_265_7560)"/>
<path d="M141.247 52.9892C143.457 41.5053 135.938 30.4047 124.454 28.1953C112.971 25.986 101.87 33.5044 99.6606 44.9883C97.4513 56.4722 104.97 67.5728 116.454 69.7822C127.938 71.9915 139.038 64.473 141.247 52.9892Z" fill="url(#paint129_linear_265_7560)"/>
<path d="M142.855 52.9537C145.063 41.4236 137.506 30.2868 125.976 28.079C114.446 25.8712 103.309 33.4284 101.101 44.9584C98.8934 56.4885 106.451 67.6252 117.981 69.8331C129.511 72.0409 140.647 64.4837 142.855 52.9537Z" fill="url(#paint130_linear_265_7560)"/>
<path d="M144.456 52.7338C146.664 41.1558 139.069 29.9796 127.491 27.771C115.913 25.5624 104.737 33.1578 102.528 44.7357C100.32 56.3137 107.915 67.4899 119.493 69.6985C131.071 71.9071 142.247 64.3118 144.456 52.7338Z" fill="url(#paint131_linear_265_7560)"/>
<path d="M145.995 52.3154C148.202 40.6891 140.567 29.4748 128.941 27.2675C117.314 25.0602 106.1 32.6957 103.893 44.322C101.685 55.9482 109.321 67.1625 120.947 69.3699C132.574 71.5772 143.788 63.9416 145.995 52.3154Z" fill="url(#paint132_linear_265_7560)"/>
<path d="M147.498 51.736C149.706 40.0619 142.032 28.8082 130.358 26.6002C118.684 24.3922 107.43 32.0661 105.222 43.7403C103.015 55.4145 110.688 66.6681 122.363 68.8761C134.037 71.0841 145.29 63.4102 147.498 51.736Z" fill="url(#paint133_linear_265_7560)"/>
<path d="M148.911 50.9783C151.117 39.2558 143.403 27.9642 131.68 25.7577C119.958 23.5511 108.666 31.2654 106.46 42.9878C104.253 54.7103 111.968 66.002 123.69 68.2085C135.412 70.415 146.704 62.7008 148.911 50.9783Z" fill="url(#paint134_linear_265_7560)"/>
<path d="M150.254 50.0835C152.461 38.3131 144.708 26.9822 132.938 24.7752C121.168 22.5681 109.837 30.3208 107.63 42.0912C105.423 53.8616 113.175 65.1925 124.946 67.3996C136.716 69.6066 148.047 61.8539 150.254 50.0835Z" fill="url(#paint135_linear_265_7560)"/>
<path d="M151.493 49.0449C153.701 37.2266 145.909 25.8564 134.091 23.6489C122.273 21.4415 110.903 29.2326 108.695 41.051C106.488 52.8693 114.279 64.2395 126.097 66.4469C137.916 68.6544 149.286 60.8633 151.493 49.0449Z" fill="url(#paint136_linear_265_7560)"/>
<path d="M152.61 47.8771C154.818 36.0129 146.989 24.6056 135.125 22.3981C123.261 20.1907 111.854 28.019 109.646 39.8831C107.439 51.7473 115.267 63.1546 127.131 65.3621C138.996 67.5695 150.403 59.7412 152.61 47.8771Z" fill="url(#paint137_linear_265_7560)"/>
<path d="M153.595 46.5893C155.803 34.6771 147.936 23.2307 136.024 21.0229C124.111 18.8152 112.665 26.6821 110.457 38.5942C108.25 50.5063 116.116 61.9527 128.029 64.1605C139.941 66.3683 151.387 58.5014 153.595 46.5893Z" fill="url(#paint138_linear_265_7560)"/>
<path d="M154.379 45.295C156.587 33.335 148.681 21.8495 136.721 19.6414C124.761 17.4334 113.276 25.339 111.068 37.299C108.86 49.2591 116.765 60.7446 128.725 62.9526C140.685 65.1607 152.171 57.2551 154.379 45.295Z" fill="url(#paint139_linear_265_7560)"/>
<path d="M155.009 44.0859C157.219 32.0782 149.277 20.5523 137.269 18.342C125.262 16.1317 113.736 24.074 111.525 36.0816C109.315 48.0893 117.257 59.6152 129.265 61.8255C141.273 64.0358 152.799 56.0935 155.009 44.0859Z" fill="url(#paint140_linear_265_7560)"/>
<path d="M155.589 42.7158C157.799 30.6602 149.818 19.0953 137.763 16.8848C125.707 14.6744 114.142 22.6555 111.932 34.7111C109.721 46.7667 117.702 58.3316 129.758 60.542C141.814 62.7525 153.379 54.7714 155.589 42.7158Z" fill="url(#paint141_linear_265_7560)"/>
<path d="M156.19 41.249C158.403 29.1458 150.385 17.5405 138.282 15.3279C126.179 13.1153 114.573 21.1332 112.361 33.2364C110.148 45.3395 118.166 56.9448 130.269 59.1574C142.372 61.37 153.978 53.3521 156.19 41.249Z" fill="url(#paint142_linear_265_7560)"/>
<path d="M156.772 39.6895C158.985 27.5384 150.928 15.8942 138.777 13.6816C126.625 11.469 114.981 19.5257 112.769 31.6769C110.556 43.8281 118.613 55.4722 130.764 57.6848C142.915 59.8975 154.559 51.8407 156.772 39.6895Z" fill="url(#paint143_linear_265_7560)"/>
<path d="M157.394 38.0998C159.609 25.9032 151.517 14.2208 139.32 12.0065C127.123 9.79218 115.441 17.8845 113.227 30.0811C111.012 42.2778 119.105 53.9602 131.301 56.1745C143.498 58.3888 155.18 50.2965 157.394 38.0998Z" fill="url(#paint144_linear_265_7560)"/>
<path d="M158.054 36.5031C160.27 24.2588 152.141 12.5362 139.896 10.3199C127.652 8.10355 115.93 16.2328 113.713 28.477C111.497 40.7213 119.626 52.4439 131.87 54.6602C144.115 56.8766 155.837 48.7473 158.054 36.5031Z" fill="url(#paint145_linear_265_7560)"/>
<path d="M158.737 34.9148C160.954 22.6226 152.785 10.8612 140.493 8.64503C128.201 6.42888 116.439 14.5972 114.223 26.8894C112.007 39.1817 120.175 50.943 132.468 53.1592C144.76 55.3753 156.521 47.2071 158.737 34.9148Z" fill="url(#paint146_linear_265_7560)"/>
<path d="M159.514 33.4049C161.732 21.065 153.527 9.26347 141.187 7.0454C128.847 4.82733 117.046 13.0327 114.828 25.3725C112.609 37.7124 120.815 49.5139 133.155 51.732C145.495 53.9501 157.296 45.7447 159.514 33.4049Z" fill="url(#paint147_linear_265_7560)"/>
<path d="M160.361 31.9833C162.581 19.5958 154.339 7.75419 141.951 5.53425C129.564 3.31432 117.722 11.5567 115.502 23.9442C113.282 36.3317 121.525 48.1733 133.912 50.3933C146.299 52.6132 158.141 44.3708 160.361 31.9833Z" fill="url(#paint148_linear_265_7560)"/>
<path d="M161.298 30.6879C163.52 18.2528 155.241 6.37106 142.805 4.14931C130.37 1.92756 118.489 10.2071 116.267 22.6422C114.045 35.0773 122.325 46.959 134.76 49.1808C147.195 51.4025 159.077 43.123 161.298 30.6879Z" fill="url(#paint149_linear_265_7560)"/>
<path d="M162.34 29.556C164.564 17.0733 156.247 5.15155 143.764 2.92804C131.282 0.704523 119.36 9.02126 117.136 21.504C114.913 33.9867 123.23 45.9085 135.712 48.132C148.195 50.3555 160.117 42.0388 162.34 29.556Z" fill="url(#paint150_linear_265_7560)"/>
<path d="M163.496 28.6233C165.721 16.095 157.368 4.1353 144.84 1.91044C132.312 -0.31441 120.352 8.03814 118.127 20.5664C115.902 33.0946 124.255 45.0544 136.783 47.2792C149.311 49.5041 161.271 41.1515 163.496 28.6233Z" fill="url(#paint151_linear_265_7560)"/>
<path d="M164.791 27.9134C167.018 15.3376 158.628 3.33783 146.052 1.11131C133.476 -1.11521 121.476 7.27461 119.25 19.8505C117.023 32.4264 125.413 44.4261 137.989 46.6526C150.565 48.8792 162.565 40.4893 164.791 27.9134Z" fill="url(#paint152_linear_265_7560)"/>
<path d="M166.257 27.482C168.488 14.8589 160.063 2.81777 147.44 0.587426C134.816 -1.64292 122.775 6.78211 120.545 19.4053C118.315 32.0284 126.74 44.0695 139.363 46.2999C151.986 48.5302 164.027 40.1052 166.257 27.482Z" fill="url(#paint153_linear_265_7560)"/>
<path d="M167.859 27.3368C170.091 14.6661 161.629 2.58502 148.958 0.353102C136.287 -1.87882 124.206 6.58355 121.974 19.2543C119.742 31.9251 128.205 44.0062 140.875 46.2381C153.546 48.47 165.627 40.0076 167.859 27.3368Z" fill="url(#paint154_linear_265_7560)"/>
<path d="M169.64 27.5245C171.874 14.8061 163.374 2.68517 150.655 0.451723C137.937 -1.78173 125.816 6.71804 123.583 19.4365C121.349 32.1549 129.849 44.2758 142.567 46.5093C155.286 48.7427 167.407 40.243 169.64 27.5245Z" fill="url(#paint155_linear_265_7560)"/>
</g>
<defs>
<linearGradient id="paint0_linear_265_7560" x1="18.4988" y1="59.9207" x2="1.96733" y2="47.9055" gradientUnits="userSpaceOnUse">
<stop stop-color="#88FF7D"/>
<stop offset="1" stop-color="#F4FF57"/>
</linearGradient>
<linearGradient id="paint1_linear_265_7560" x1="18.667" y1="57.9257" x2="1.99718" y2="45.8099" gradientUnits="userSpaceOnUse">
<stop stop-color="#87FE7D"/>
<stop offset="1" stop-color="#F4FE58"/>
</linearGradient>
<linearGradient id="paint2_linear_265_7560" x1="19.0732" y1="56.2485" x2="2.27048" y2="44.0316" gradientUnits="userSpaceOnUse">
<stop stop-color="#87FC7D"/>
<stop offset="1" stop-color="#F4FD59"/>
</linearGradient>
<linearGradient id="paint3_linear_265_7560" x1="19.7745" y1="54.8695" x2="2.82824" y2="42.5527" gradientUnits="userSpaceOnUse">
<stop stop-color="#86FB7E"/>
<stop offset="1" stop-color="#F4FB5A"/>
</linearGradient>
<linearGradient id="paint4_linear_265_7560" x1="20.6674" y1="53.7781" x2="3.58813" y2="41.3601" gradientUnits="userSpaceOnUse">
<stop stop-color="#85FA7E"/>
<stop offset="1" stop-color="#F3FA5B"/>
</linearGradient>
<linearGradient id="paint5_linear_265_7560" x1="21.7543" y1="52.9512" x2="4.53681" y2="40.4328" gradientUnits="userSpaceOnUse">
<stop stop-color="#84F87E"/>
<stop offset="1" stop-color="#F3F95C"/>
</linearGradient>
<linearGradient id="paint6_linear_265_7560" x1="23.009" y1="52.3661" x2="5.65418" y2="39.7525" gradientUnits="userSpaceOnUse">
<stop stop-color="#84F77E"/>
<stop offset="1" stop-color="#F3F85E"/>
</linearGradient>
<linearGradient id="paint7_linear_265_7560" x1="24.3642" y1="52.029" x2="6.87332" y2="39.3119" gradientUnits="userSpaceOnUse">
<stop stop-color="#83F67E"/>
<stop offset="1" stop-color="#F3F65F"/>
</linearGradient>
<linearGradient id="paint8_linear_265_7560" x1="25.8424" y1="51.9092" x2="8.21328" y2="39.0915" gradientUnits="userSpaceOnUse">
<stop stop-color="#82F57F"/>
<stop offset="1" stop-color="#F3F560"/>
</linearGradient>
<linearGradient id="paint9_linear_265_7560" x1="27.4029" y1="51.9842" x2="9.63328" y2="39.0692" gradientUnits="userSpaceOnUse">
<stop stop-color="#81F37F"/>
<stop offset="1" stop-color="#F3F461"/>
</linearGradient>
<linearGradient id="paint10_linear_265_7560" x1="28.9818" y1="52.2645" x2="11.0762" y2="39.2457" gradientUnits="userSpaceOnUse">
<stop stop-color="#81F27F"/>
<stop offset="1" stop-color="#F2F362"/>
</linearGradient>
<linearGradient id="paint11_linear_265_7560" x1="30.5972" y1="52.7006" x2="12.5543" y2="39.5868" gradientUnits="userSpaceOnUse">
<stop stop-color="#80F17F"/>
<stop offset="1" stop-color="#F2F163"/>
</linearGradient>
<linearGradient id="paint12_linear_265_7560" x1="32.2185" y1="53.3132" x2="14.0373" y2="40.0989" gradientUnits="userSpaceOnUse">
<stop stop-color="#7FEF7F"/>
<stop offset="1" stop-color="#F2F064"/>
</linearGradient>
<linearGradient id="paint13_linear_265_7560" x1="33.7775" y1="54.0607" x2="15.458" y2="40.7459" gradientUnits="userSpaceOnUse">
<stop stop-color="#7EEE80"/>
<stop offset="1" stop-color="#F2EF65"/>
</linearGradient>
<linearGradient id="paint14_linear_265_7560" x1="35.25" y1="54.9406" x2="16.7977" y2="41.5245" gradientUnits="userSpaceOnUse">
<stop stop-color="#7EED80"/>
<stop offset="1" stop-color="#F2EE66"/>
</linearGradient>
<linearGradient id="paint15_linear_265_7560" x1="36.6436" y1="55.9275" x2="18.0531" y2="42.4108" gradientUnits="userSpaceOnUse">
<stop stop-color="#7DEB80"/>
<stop offset="1" stop-color="#F2ED67"/>
</linearGradient>
<linearGradient id="paint16_linear_265_7560" x1="37.9315" y1="57.0034" x2="19.2036" y2="43.3917" gradientUnits="userSpaceOnUse">
<stop stop-color="#7CEA80"/>
<stop offset="1" stop-color="#F2EB68"/>
</linearGradient>
<linearGradient id="paint17_linear_265_7560" x1="39.0583" y1="58.1725" x2="20.1921" y2="44.4603" gradientUnits="userSpaceOnUse">
<stop stop-color="#7BE980"/>
<stop offset="1" stop-color="#F1EA69"/>
</linearGradient>
<linearGradient id="paint18_linear_265_7560" x1="40.0021" y1="59.4262" x2="20.9977" y2="45.6135" gradientUnits="userSpaceOnUse">
<stop stop-color="#7BE881"/>
<stop offset="1" stop-color="#F1E96B"/>
</linearGradient>
<linearGradient id="paint19_linear_265_7560" x1="40.9673" y1="60.7834" x2="21.8246" y2="46.8703" gradientUnits="userSpaceOnUse">
<stop stop-color="#7AE681"/>
<stop offset="1" stop-color="#F1E86C"/>
</linearGradient>
<linearGradient id="paint20_linear_265_7560" x1="41.9289" y1="62.1311" x2="22.6479" y2="48.1175" gradientUnits="userSpaceOnUse">
<stop stop-color="#79E581"/>
<stop offset="1" stop-color="#F1E66D"/>
</linearGradient>
<linearGradient id="paint21_linear_265_7560" x1="42.9206" y1="63.4381" x2="23.5045" y2="49.3263" gradientUnits="userSpaceOnUse">
<stop stop-color="#79E481"/>
<stop offset="1" stop-color="#F1E56E"/>
</linearGradient>
<linearGradient id="paint22_linear_265_7560" x1="43.9811" y1="64.6855" x2="24.4292" y2="50.4698" gradientUnits="userSpaceOnUse">
<stop stop-color="#78E281"/>
<stop offset="1" stop-color="#F1E46F"/>
</linearGradient>
<linearGradient id="paint23_linear_265_7560" x1="45.1616" y1="65.8253" x2="25.4721" y2="51.5148" gradientUnits="userSpaceOnUse">
<stop stop-color="#77E182"/>
<stop offset="1" stop-color="#F0E370"/>
</linearGradient>
<linearGradient id="paint24_linear_265_7560" x1="46.4838" y1="66.858" x2="26.656" y2="52.447" gradientUnits="userSpaceOnUse">
<stop stop-color="#76E082"/>
<stop offset="1" stop-color="#F0E171"/>
</linearGradient>
<linearGradient id="paint25_linear_265_7560" x1="48.0105" y1="67.7335" x2="28.0445" y2="53.222" gradientUnits="userSpaceOnUse">
<stop stop-color="#76DE82"/>
<stop offset="1" stop-color="#F0E072"/>
</linearGradient>
<linearGradient id="paint26_linear_265_7560" x1="49.6128" y1="68.271" x2="29.5085" y2="53.6591" gradientUnits="userSpaceOnUse">
<stop stop-color="#75DD82"/>
<stop offset="1" stop-color="#F0DF73"/>
</linearGradient>
<linearGradient id="paint27_linear_265_7560" x1="51.1669" y1="68.4623" x2="30.9275" y2="53.7522" gradientUnits="userSpaceOnUse">
<stop stop-color="#74DC82"/>
<stop offset="1" stop-color="#F0DE74"/>
</linearGradient>
<linearGradient id="paint28_linear_265_7560" x1="52.6728" y1="68.3293" x2="32.2951" y2="53.5186" gradientUnits="userSpaceOnUse">
<stop stop-color="#73DB83"/>
<stop offset="1" stop-color="#F0DC75"/>
</linearGradient>
<linearGradient id="paint29_linear_265_7560" x1="54.0671" y1="67.8883" x2="33.5538" y2="52.9736" gradientUnits="userSpaceOnUse">
<stop stop-color="#73D983"/>
<stop offset="1" stop-color="#F0DB76"/>
</linearGradient>
<linearGradient id="paint30_linear_265_7560" x1="55.373" y1="67.14" x2="34.7214" y2="52.1247" gradientUnits="userSpaceOnUse">
<stop stop-color="#72D883"/>
<stop offset="1" stop-color="#EFDA78"/>
</linearGradient>
<linearGradient id="paint31_linear_265_7560" x1="56.5131" y1="66.1034" x2="35.7264" y2="50.9899" gradientUnits="userSpaceOnUse">
<stop stop-color="#71D783"/>
<stop offset="1" stop-color="#EFD979"/>
</linearGradient>
<linearGradient id="paint32_linear_265_7560" x1="57.4986" y1="64.7863" x2="36.571" y2="49.576" gradientUnits="userSpaceOnUse">
<stop stop-color="#70D583"/>
<stop offset="1" stop-color="#EFD87A"/>
</linearGradient>
<linearGradient id="paint33_linear_265_7560" x1="58.1997" y1="63.2854" x2="37.1339" y2="47.9746" gradientUnits="userSpaceOnUse">
<stop stop-color="#70D484"/>
<stop offset="1" stop-color="#EFD67B"/>
</linearGradient>
<linearGradient id="paint34_linear_265_7560" x1="58.6386" y1="61.8549" x2="37.4345" y2="46.4436" gradientUnits="userSpaceOnUse">
<stop stop-color="#6FD384"/>
<stop offset="1" stop-color="#EFD57C"/>
</linearGradient>
<linearGradient id="paint35_linear_265_7560" x1="58.879" y1="60.3911" x2="37.5425" y2="44.8779" gradientUnits="userSpaceOnUse">
<stop stop-color="#6ED184"/>
<stop offset="1" stop-color="#EFD47D"/>
</linearGradient>
<linearGradient id="paint36_linear_265_7560" x1="59.0305" y1="58.8947" x2="37.553" y2="43.2847" gradientUnits="userSpaceOnUse">
<stop stop-color="#6ED084"/>
<stop offset="1" stop-color="#EED37E"/>
</linearGradient>
<linearGradient id="paint37_linear_265_7560" x1="59.0294" y1="57.408" x2="37.4165" y2="41.6937" gradientUnits="userSpaceOnUse">
<stop stop-color="#6DCF84"/>
<stop offset="1" stop-color="#EED17F"/>
</linearGradient>
<linearGradient id="paint38_linear_265_7560" x1="58.9799" y1="55.9073" x2="37.2318" y2="40.0948" gradientUnits="userSpaceOnUse">
<stop stop-color="#6CCD85"/>
<stop offset="1" stop-color="#EED080"/>
</linearGradient>
<linearGradient id="paint39_linear_265_7560" x1="58.9065" y1="54.467" x2="37.0202" y2="38.554" gradientUnits="userSpaceOnUse">
<stop stop-color="#6BCC85"/>
<stop offset="1" stop-color="#EECF81"/>
</linearGradient>
<linearGradient id="paint40_linear_265_7560" x1="58.8848" y1="53.0632" x2="36.8574" y2="37.0535" gradientUnits="userSpaceOnUse">
<stop stop-color="#6BCB85"/>
<stop offset="1" stop-color="#EECE82"/>
</linearGradient>
<linearGradient id="paint41_linear_265_7560" x1="58.8463" y1="51.5915" x2="36.6866" y2="35.4798" gradientUnits="userSpaceOnUse">
<stop stop-color="#6ACA85"/>
<stop offset="1" stop-color="#EECC83"/>
</linearGradient>
<linearGradient id="paint42_linear_265_7560" x1="58.9013" y1="50.0629" x2="36.6003" y2="33.8483" gradientUnits="userSpaceOnUse">
<stop stop-color="#69C885"/>
<stop offset="1" stop-color="#EDCB85"/>
</linearGradient>
<linearGradient id="paint43_linear_265_7560" x1="59.0104" y1="48.5085" x2="36.5742" y2="32.1958" gradientUnits="userSpaceOnUse">
<stop stop-color="#68C786"/>
<stop offset="1" stop-color="#EDCA86"/>
</linearGradient>
<linearGradient id="paint44_linear_265_7560" x1="59.2318" y1="46.9654" x2="36.6574" y2="30.5521" gradientUnits="userSpaceOnUse">
<stop stop-color="#68C686"/>
<stop offset="1" stop-color="#EDC987"/>
</linearGradient>
<linearGradient id="paint45_linear_265_7560" x1="59.5933" y1="45.4436" x2="36.8777" y2="28.9337" gradientUnits="userSpaceOnUse">
<stop stop-color="#67C486"/>
<stop offset="1" stop-color="#EDC888"/>
</linearGradient>
<linearGradient id="paint46_linear_265_7560" x1="60.0709" y1="43.9975" x2="37.2171" y2="27.3872" gradientUnits="userSpaceOnUse">
<stop stop-color="#66C386"/>
<stop offset="1" stop-color="#EDC689"/>
</linearGradient>
<linearGradient id="paint47_linear_265_7560" x1="60.6989" y1="42.643" x2="37.71" y2="25.9345" gradientUnits="userSpaceOnUse">
<stop stop-color="#65C286"/>
<stop offset="1" stop-color="#EDC58A"/>
</linearGradient>
<linearGradient id="paint48_linear_265_7560" x1="61.4592" y1="41.4042" x2="38.3381" y2="24.5934" gradientUnits="userSpaceOnUse">
<stop stop-color="#65C087"/>
<stop offset="1" stop-color="#EDC48B"/>
</linearGradient>
<linearGradient id="paint49_linear_265_7560" x1="62.4824" y1="40.3147" x2="39.217" y2="23.4052" gradientUnits="userSpaceOnUse">
<stop stop-color="#64BF87"/>
<stop offset="1" stop-color="#ECC38C"/>
</linearGradient>
<linearGradient id="paint50_linear_265_7560" x1="63.6611" y1="39.409" x2="40.2635" y2="22.3972" gradientUnits="userSpaceOnUse">
<stop stop-color="#63BE87"/>
<stop offset="1" stop-color="#ECC18D"/>
</linearGradient>
<linearGradient id="paint51_linear_265_7560" x1="65.1159" y1="38.7002" x2="41.5771" y2="21.592" gradientUnits="userSpaceOnUse">
<stop stop-color="#62BD87"/>
<stop offset="1" stop-color="#ECC08E"/>
</linearGradient>
<linearGradient id="paint52_linear_265_7560" x1="66.7897" y1="38.239" x2="43.1188" y2="21.0285" gradientUnits="userSpaceOnUse">
<stop stop-color="#62BB87"/>
<stop offset="1" stop-color="#ECBF8F"/>
</linearGradient>
<linearGradient id="paint53_linear_265_7560" x1="68.5038" y1="38.0561" x2="44.6947" y2="20.745" gradientUnits="userSpaceOnUse">
<stop stop-color="#61BA88"/>
<stop offset="1" stop-color="#ECBE90"/>
</linearGradient>
<linearGradient id="paint54_linear_265_7560" x1="70.0955" y1="38.1173" x2="46.1451" y2="20.7099" gradientUnits="userSpaceOnUse">
<stop stop-color="#60B988"/>
<stop offset="1" stop-color="#ECBC92"/>
</linearGradient>
<linearGradient id="paint55_linear_265_7560" x1="71.5532" y1="38.446" x2="47.4707" y2="20.9362" gradientUnits="userSpaceOnUse">
<stop stop-color="#60B788"/>
<stop offset="1" stop-color="#EBBB93"/>
</linearGradient>
<linearGradient id="paint56_linear_265_7560" x1="72.9422" y1="38.9842" x2="48.7153" y2="21.3758" gradientUnits="userSpaceOnUse">
<stop stop-color="#5FB688"/>
<stop offset="1" stop-color="#EBBA94"/>
</linearGradient>
<linearGradient id="paint57_linear_265_7560" x1="74.2" y1="39.7323" x2="49.8379" y2="22.0257" gradientUnits="userSpaceOnUse">
<stop stop-color="#5EB588"/>
<stop offset="1" stop-color="#EBB995"/>
</linearGradient>
<linearGradient id="paint58_linear_265_7560" x1="75.3662" y1="40.668" x2="50.8659" y2="22.8609" gradientUnits="userSpaceOnUse">
<stop stop-color="#5DB389"/>
<stop offset="1" stop-color="#EBB896"/>
</linearGradient>
<linearGradient id="paint59_linear_265_7560" x1="76.4517" y1="41.7666" x2="51.8162" y2="23.8613" gradientUnits="userSpaceOnUse">
<stop stop-color="#5DB289"/>
<stop offset="1" stop-color="#EBB697"/>
</linearGradient>
<linearGradient id="paint60_linear_265_7560" x1="77.4629" y1="43.0149" x2="52.6861" y2="25.0068" gradientUnits="userSpaceOnUse">
<stop stop-color="#5CB189"/>
<stop offset="1" stop-color="#EBB598"/>
</linearGradient>
<linearGradient id="paint61_linear_265_7560" x1="78.4061" y1="44.3945" x2="53.4941" y2="26.2882" gradientUnits="userSpaceOnUse">
<stop stop-color="#5BB089"/>
<stop offset="1" stop-color="#EBB499"/>
</linearGradient>
<linearGradient id="paint62_linear_265_7560" x1="79.2884" y1="45.8733" x2="54.2382" y2="27.6666" gradientUnits="userSpaceOnUse">
<stop stop-color="#5AAE89"/>
<stop offset="1" stop-color="#EAB39A"/>
</linearGradient>
<linearGradient id="paint63_linear_265_7560" x1="80.113" y1="47.4417" x2="54.9276" y2="29.1368" gradientUnits="userSpaceOnUse">
<stop stop-color="#5AAD8A"/>
<stop offset="1" stop-color="#EAB19B"/>
</linearGradient>
<linearGradient id="paint64_linear_265_7560" x1="80.9008" y1="49.0827" x2="55.5772" y2="30.6773" gradientUnits="userSpaceOnUse">
<stop stop-color="#59AC8A"/>
<stop offset="1" stop-color="#EAB09C"/>
</linearGradient>
<linearGradient id="paint65_linear_265_7560" x1="81.6529" y1="50.7683" x2="56.191" y2="32.2624" gradientUnits="userSpaceOnUse">
<stop stop-color="#58AA8A"/>
<stop offset="1" stop-color="#EAAF9D"/>
</linearGradient>
<linearGradient id="paint66_linear_265_7560" x1="82.3731" y1="52.4871" x2="56.773" y2="33.8807" gradientUnits="userSpaceOnUse">
<stop stop-color="#57A98A"/>
<stop offset="1" stop-color="#EAAE9F"/>
</linearGradient>
<linearGradient id="paint67_linear_265_7560" x1="83.0729" y1="54.212" x2="57.3377" y2="35.5074" gradientUnits="userSpaceOnUse">
<stop stop-color="#57A88A"/>
<stop offset="1" stop-color="#EAACA0"/>
</linearGradient>
<linearGradient id="paint68_linear_265_7560" x1="83.7597" y1="55.9261" x2="57.8862" y2="37.121" gradientUnits="userSpaceOnUse">
<stop stop-color="#56A68B"/>
<stop offset="1" stop-color="#E9ABA1"/>
</linearGradient>
<linearGradient id="paint69_linear_265_7560" x1="84.4363" y1="57.6126" x2="58.4277" y2="38.7093" gradientUnits="userSpaceOnUse">
<stop stop-color="#55A58B"/>
<stop offset="1" stop-color="#E9AAA2"/>
</linearGradient>
<linearGradient id="paint70_linear_265_7560" x1="85.1027" y1="59.2621" x2="58.956" y2="40.2515" gradientUnits="userSpaceOnUse">
<stop stop-color="#55A48B"/>
<stop offset="1" stop-color="#E9A9A3"/>
</linearGradient>
<linearGradient id="paint71_linear_265_7560" x1="85.8021" y1="60.8181" x2="59.5169" y2="41.7138" gradientUnits="userSpaceOnUse">
<stop stop-color="#54A28B"/>
<stop offset="1" stop-color="#E9A8A4"/>
</linearGradient>
<linearGradient id="paint72_linear_265_7560" x1="86.5203" y1="62.2972" x2="60.1" y2="43.0947" gradientUnits="userSpaceOnUse">
<stop stop-color="#53A18B"/>
<stop offset="1" stop-color="#E9A6A5"/>
</linearGradient>
<linearGradient id="paint73_linear_265_7560" x1="87.28" y1="63.675" x2="60.7183" y2="44.3697" gradientUnits="userSpaceOnUse">
<stop stop-color="#52A08C"/>
<stop offset="1" stop-color="#E9A5A6"/>
</linearGradient>
<linearGradient id="paint74_linear_265_7560" x1="88.0552" y1="64.9176" x2="61.3584" y2="45.5141" gradientUnits="userSpaceOnUse">
<stop stop-color="#529F8C"/>
<stop offset="1" stop-color="#E9A4A7"/>
</linearGradient>
<linearGradient id="paint75_linear_265_7560" x1="88.8689" y1="66.0162" x2="62.0339" y2="46.5123" gradientUnits="userSpaceOnUse">
<stop stop-color="#519D8C"/>
<stop offset="1" stop-color="#E8A3A8"/>
</linearGradient>
<linearGradient id="paint76_linear_265_7560" x1="89.8083" y1="67.0285" x2="62.835" y2="47.424" gradientUnits="userSpaceOnUse">
<stop stop-color="#509C8C"/>
<stop offset="1" stop-color="#E8A1A9"/>
</linearGradient>
<linearGradient id="paint77_linear_265_7560" x1="91.104" y1="68.0771" x2="63.999" y2="48.3697" gradientUnits="userSpaceOnUse">
<stop stop-color="#4F9B8C"/>
<stop offset="1" stop-color="#E8A0AA"/>
</linearGradient>
<linearGradient id="paint78_linear_265_7560" x1="92.5702" y1="68.8805" x2="65.3269" y2="49.0726" gradientUnits="userSpaceOnUse">
<stop stop-color="#4F998D"/>
<stop offset="1" stop-color="#E89FAC"/>
</linearGradient>
<linearGradient id="paint79_linear_265_7560" x1="94.1406" y1="69.4023" x2="66.7623" y2="49.4962" gradientUnits="userSpaceOnUse">
<stop stop-color="#4E988D"/>
<stop offset="1" stop-color="#E89EAD"/>
</linearGradient>
<linearGradient id="paint80_linear_265_7560" x1="95.7529" y1="69.5845" x2="68.2363" y2="49.5779" gradientUnits="userSpaceOnUse">
<stop stop-color="#4D978D"/>
<stop offset="1" stop-color="#E89CAE"/>
</linearGradient>
<linearGradient id="paint81_linear_265_7560" x1="97.4435" y1="69.3866" x2="69.7887" y2="49.2794" gradientUnits="userSpaceOnUse">
<stop stop-color="#4C958D"/>
<stop offset="1" stop-color="#E79BAF"/>
</linearGradient>
<linearGradient id="paint82_linear_265_7560" x1="99.0285" y1="68.9036" x2="71.2319" y2="48.7008" gradientUnits="userSpaceOnUse">
<stop stop-color="#4C948D"/>
<stop offset="1" stop-color="#E79AB0"/>
</linearGradient>
<linearGradient id="paint83_linear_265_7560" x1="100.271" y1="68.2122" x2="72.3394" y2="47.9112" gradientUnits="userSpaceOnUse">
<stop stop-color="#4B938E"/>
<stop offset="1" stop-color="#E799B1"/>
</linearGradient>
<linearGradient id="paint84_linear_265_7560" x1="101.283" y1="67.347" x2="73.2165" y2="46.9406" gradientUnits="userSpaceOnUse">
<stop stop-color="#4A928E"/>
<stop offset="1" stop-color="#E797B2"/>
</linearGradient>
<linearGradient id="paint85_linear_265_7560" x1="102.068" y1="66.2832" x2="73.8596" y2="45.7812" gradientUnits="userSpaceOnUse">
<stop stop-color="#49908E"/>
<stop offset="1" stop-color="#E796B3"/>
</linearGradient>
<linearGradient id="paint86_linear_265_7560" x1="102.637" y1="65.0841" x2="74.2902" y2="44.4816" gradientUnits="userSpaceOnUse">
<stop stop-color="#498F8E"/>
<stop offset="1" stop-color="#E795B4"/>
</linearGradient>
<linearGradient id="paint87_linear_265_7560" x1="103.034" y1="63.7461" x2="74.552" y2="43.0454" gradientUnits="userSpaceOnUse">
<stop stop-color="#488E8E"/>
<stop offset="1" stop-color="#E794B5"/>
</linearGradient>
<linearGradient id="paint88_linear_265_7560" x1="103.232" y1="62.3128" x2="74.6157" y2="41.5066" gradientUnits="userSpaceOnUse">
<stop stop-color="#478C8F"/>
<stop offset="1" stop-color="#E693B6"/>
</linearGradient>
<linearGradient id="paint89_linear_265_7560" x1="103.357" y1="60.7552" x2="74.599" y2="39.8536" gradientUnits="userSpaceOnUse">
<stop stop-color="#478B8F"/>
<stop offset="1" stop-color="#E691B7"/>
</linearGradient>
<linearGradient id="paint90_linear_265_7560" x1="103.365" y1="59.1414" x2="74.469" y2="38.1393" gradientUnits="userSpaceOnUse">
<stop stop-color="#468A8F"/>
<stop offset="1" stop-color="#E690B9"/>
</linearGradient>
<linearGradient id="paint91_linear_265_7560" x1="103.274" y1="57.4687" x2="74.2392" y2="36.3661" gradientUnits="userSpaceOnUse">
<stop stop-color="#45888F"/>
<stop offset="1" stop-color="#E68FBA"/>
</linearGradient>
<linearGradient id="paint92_linear_265_7560" x1="103.18" y1="55.7611" x2="74.0101" y2="34.5603" gradientUnits="userSpaceOnUse">
<stop stop-color="#44878F"/>
<stop offset="1" stop-color="#E68EBB"/>
</linearGradient>
<linearGradient id="paint93_linear_265_7560" x1="103.008" y1="54.0444" x2="73.7042" y2="32.738" gradientUnits="userSpaceOnUse">
<stop stop-color="#448690"/>
<stop offset="1" stop-color="#E68CBC"/>
</linearGradient>
<linearGradient id="paint94_linear_265_7560" x1="102.882" y1="52.3269" x2="73.4397" y2="30.92" gradientUnits="userSpaceOnUse">
<stop stop-color="#438490"/>
<stop offset="1" stop-color="#E58BBD"/>
</linearGradient>
<linearGradient id="paint95_linear_265_7560" x1="102.778" y1="50.6112" x2="73.1966" y2="29.1111" gradientUnits="userSpaceOnUse">
<stop stop-color="#428390"/>
<stop offset="1" stop-color="#E58ABE"/>
</linearGradient>
<linearGradient id="paint96_linear_265_7560" x1="102.748" y1="48.958" x2="73.0288" y2="27.3575" gradientUnits="userSpaceOnUse">
<stop stop-color="#418290"/>
<stop offset="1" stop-color="#E589BF"/>
</linearGradient>
<linearGradient id="paint97_linear_265_7560" x1="102.77" y1="47.3693" x2="72.9187" y2="25.6654" gradientUnits="userSpaceOnUse">
<stop stop-color="#418190"/>
<stop offset="1" stop-color="#E587C0"/>
</linearGradient>
<linearGradient id="paint98_linear_265_7560" x1="102.948" y1="45.8432" x2="72.9514" y2="24.0417" gradientUnits="userSpaceOnUse">
<stop stop-color="#407F91"/>
<stop offset="1" stop-color="#E586C1"/>
</linearGradient>
<linearGradient id="paint99_linear_265_7560" x1="103.232" y1="44.4271" x2="73.1004" y2="22.5274" gradientUnits="userSpaceOnUse">
<stop stop-color="#3F7E91"/>
<stop offset="1" stop-color="#E585C2"/>
</linearGradient>
<linearGradient id="paint100_linear_265_7560" x1="103.7" y1="43.1305" x2="73.4331" y2="21.1326" gradientUnits="userSpaceOnUse">
<stop stop-color="#3E7D91"/>
<stop offset="1" stop-color="#E584C3"/>
</linearGradient>
<linearGradient id="paint101_linear_265_7560" x1="104.344" y1="41.9851" x2="73.9399" y2="19.8791" gradientUnits="userSpaceOnUse">
<stop stop-color="#3E7B91"/>
<stop offset="1" stop-color="#E483C4"/>
</linearGradient>
<linearGradient id="paint102_linear_265_7560" x1="105.25" y1="40.9744" x2="74.7075" y2="18.7755" gradientUnits="userSpaceOnUse">
<stop stop-color="#3D7A91"/>
<stop offset="1" stop-color="#E481C6"/>
</linearGradient>
<linearGradient id="paint103_linear_265_7560" x1="106.349" y1="40.1641" x2="75.6714" y2="17.8594" gradientUnits="userSpaceOnUse">
<stop stop-color="#3C7992"/>
<stop offset="1" stop-color="#E480C7"/>
</linearGradient>
<linearGradient id="paint104_linear_265_7560" x1="107.77" y1="39.5666" x2="76.9547" y2="17.1614" gradientUnits="userSpaceOnUse">
<stop stop-color="#3C7792"/>
<stop offset="1" stop-color="#E47FC8"/>
</linearGradient>
<linearGradient id="paint105_linear_265_7560" x1="109.381" y1="39.3815" x2="78.4303" y2="16.878" gradientUnits="userSpaceOnUse">
<stop stop-color="#3B7692"/>
<stop offset="1" stop-color="#E47EC9"/>
</linearGradient>
<linearGradient id="paint106_linear_265_7560" x1="111.009" y1="39.5918" x2="79.9201" y2="16.9878" gradientUnits="userSpaceOnUse">
<stop stop-color="#3A7592"/>
<stop offset="1" stop-color="#E47CCA"/>
</linearGradient>
<linearGradient id="paint107_linear_265_7560" x1="112.606" y1="40.1288" x2="81.3747" y2="17.4298" gradientUnits="userSpaceOnUse">
<stop stop-color="#397492"/>
<stop offset="1" stop-color="#E37BCB"/>
</linearGradient>
<linearGradient id="paint108_linear_265_7560" x1="114.07" y1="40.9313" x2="82.7003" y2="18.1318" gradientUnits="userSpaceOnUse">
<stop stop-color="#397293"/>
<stop offset="1" stop-color="#E37ACC"/>
</linearGradient>
<linearGradient id="paint109_linear_265_7560" x1="115.43" y1="41.8723" x2="83.9297" y2="18.9691" gradientUnits="userSpaceOnUse">
<stop stop-color="#387193"/>
<stop offset="1" stop-color="#E379CD"/>
</linearGradient>
<linearGradient id="paint110_linear_265_7560" x1="116.729" y1="42.9014" x2="85.0898" y2="19.8977" gradientUnits="userSpaceOnUse">
<stop stop-color="#377093"/>
<stop offset="1" stop-color="#E377CE"/>
</linearGradient>
<linearGradient id="paint111_linear_265_7560" x1="117.938" y1="44.0106" x2="86.1608" y2="20.9063" gradientUnits="userSpaceOnUse">
<stop stop-color="#366E93"/>
<stop offset="1" stop-color="#E376CF"/>
</linearGradient>
<linearGradient id="paint112_linear_265_7560" x1="119.12" y1="45.1747" x2="87.2008" y2="21.9755" gradientUnits="userSpaceOnUse">
<stop stop-color="#366D93"/>
<stop offset="1" stop-color="#E375D0"/>
</linearGradient>
<linearGradient id="paint113_linear_265_7560" x1="120.203" y1="46.42" x2="88.1527" y2="23.117" gradientUnits="userSpaceOnUse">
<stop stop-color="#356C94"/>
<stop offset="1" stop-color="#E374D1"/>
</linearGradient>
<linearGradient id="paint114_linear_265_7560" x1="121.28" y1="47.6941" x2="89.0911" y2="24.2906" gradientUnits="userSpaceOnUse">
<stop stop-color="#346A94"/>
<stop offset="1" stop-color="#E273D3"/>
</linearGradient>
<linearGradient id="paint115_linear_265_7560" x1="122.35" y1="48.9948" x2="90.0188" y2="25.4964" gradientUnits="userSpaceOnUse">
<stop stop-color="#336994"/>
<stop offset="1" stop-color="#E271D4"/>
</linearGradient>
<linearGradient id="paint116_linear_265_7560" x1="123.368" y1="50.3291" x2="90.9058" y2="26.7268" gradientUnits="userSpaceOnUse">
<stop stop-color="#336894"/>
<stop offset="1" stop-color="#E270D5"/>
</linearGradient>
<linearGradient id="paint117_linear_265_7560" x1="124.405" y1="51.6645" x2="91.8049" y2="27.9617" gradientUnits="userSpaceOnUse">
<stop stop-color="#326794"/>
<stop offset="1" stop-color="#E26FD6"/>
</linearGradient>
<linearGradient id="paint118_linear_265_7560" x1="125.44" y1="52.9883" x2="92.7015" y2="29.185" gradientUnits="userSpaceOnUse">
<stop stop-color="#316595"/>
<stop offset="1" stop-color="#E26ED7"/>
</linearGradient>
<linearGradient id="paint119_linear_265_7560" x1="126.516" y1="54.2811" x2="93.6348" y2="30.383" gradientUnits="userSpaceOnUse">
<stop stop-color="#306495"/>
<stop offset="1" stop-color="#E26CD8"/>
</linearGradient>
<linearGradient id="paint120_linear_265_7560" x1="127.569" y1="55.5555" x2="94.5533" y2="31.5592" gradientUnits="userSpaceOnUse">
<stop stop-color="#306395"/>
<stop offset="1" stop-color="#E16BD9"/>
</linearGradient>
<linearGradient id="paint121_linear_265_7560" x1="128.709" y1="56.7895" x2="95.5548" y2="32.6928" gradientUnits="userSpaceOnUse">
<stop stop-color="#2F6195"/>
<stop offset="1" stop-color="#E16ADA"/>
</linearGradient>
<linearGradient id="paint122_linear_265_7560" x1="129.882" y1="57.9647" x2="96.5896" y2="33.7674" gradientUnits="userSpaceOnUse">
<stop stop-color="#2E6095"/>
<stop offset="1" stop-color="#E169DB"/>
</linearGradient>
<linearGradient id="paint123_linear_265_7560" x1="131.1" y1="59.0749" x2="97.6723" y2="34.7795" gradientUnits="userSpaceOnUse">
<stop stop-color="#2E5F96"/>
<stop offset="1" stop-color="#E167DC"/>
</linearGradient>
<linearGradient id="paint124_linear_265_7560" x1="132.382" y1="60.098" x2="98.8158" y2="35.702" gradientUnits="userSpaceOnUse">
<stop stop-color="#2D5D96"/>
<stop offset="1" stop-color="#E166DD"/>
</linearGradient>
<linearGradient id="paint125_linear_265_7560" x1="133.751" y1="61.0417" x2="100.055" y2="36.5417" gradientUnits="userSpaceOnUse">
<stop stop-color="#2C5C96"/>
<stop offset="1" stop-color="#E165DE"/>
</linearGradient>
<linearGradient id="paint126_linear_265_7560" x1="135.228" y1="61.8517" x2="101.389" y2="37.2571" gradientUnits="userSpaceOnUse">
<stop stop-color="#2B5B96"/>
<stop offset="1" stop-color="#E064E0"/>
</linearGradient>
<linearGradient id="paint127_linear_265_7560" x1="136.833" y1="62.5363" x2="102.856" y2="37.8412" gradientUnits="userSpaceOnUse">
<stop stop-color="#2B5996"/>
<stop offset="1" stop-color="#E063E1"/>
</linearGradient>
<linearGradient id="paint128_linear_265_7560" x1="138.453" y1="62.9988" x2="104.337" y2="38.2032" gradientUnits="userSpaceOnUse">
<stop stop-color="#2A5897"/>
<stop offset="1" stop-color="#E061E2"/>
</linearGradient>
<linearGradient id="paint129_linear_265_7560" x1="140.083" y1="63.2409" x2="105.833" y2="38.3471" gradientUnits="userSpaceOnUse">
<stop stop-color="#295797"/>
<stop offset="1" stop-color="#E060E3"/>
</linearGradient>
<linearGradient id="paint130_linear_265_7560" x1="141.695" y1="63.282" x2="107.306" y2="38.2877" gradientUnits="userSpaceOnUse">
<stop stop-color="#285697"/>
<stop offset="1" stop-color="#E05FE4"/>
</linearGradient>
<linearGradient id="paint131_linear_265_7560" x1="143.294" y1="63.1451" x2="108.768" y2="38.042" gradientUnits="userSpaceOnUse">
<stop stop-color="#285497"/>
<stop offset="1" stop-color="#E05EE5"/>
</linearGradient>
<linearGradient id="paint132_linear_265_7560" x1="144.867" y1="62.7853" x2="110.201" y2="37.59" gradientUnits="userSpaceOnUse">
<stop stop-color="#275397"/>
<stop offset="1" stop-color="#E05CE6"/>
</linearGradient>
<linearGradient id="paint133_linear_265_7560" x1="146.361" y1="62.2889" x2="111.565" y2="36.9894" gradientUnits="userSpaceOnUse">
<stop stop-color="#265298"/>
<stop offset="1" stop-color="#DF5BE7"/>
</linearGradient>
<linearGradient id="paint134_linear_265_7560" x1="147.796" y1="61.5973" x2="112.857" y2="36.2033" gradientUnits="userSpaceOnUse">
<stop stop-color="#255098"/>
<stop offset="1" stop-color="#DF5AE8"/>
</linearGradient>
<linearGradient id="paint135_linear_265_7560" x1="149.158" y1="60.7706" x2="114.081" y2="35.2761" gradientUnits="userSpaceOnUse">
<stop stop-color="#254F98"/>
<stop offset="1" stop-color="#DF59E9"/>
</linearGradient>
<linearGradient id="paint136_linear_265_7560" x1="150.415" y1="59.8024" x2="115.203" y2="34.2097" gradientUnits="userSpaceOnUse">
<stop stop-color="#244E98"/>
<stop offset="1" stop-color="#DF57EA"/>
</linearGradient>
<linearGradient id="paint137_linear_265_7560" x1="151.546" y1="58.7058" x2="116.195" y2="33.0126" gradientUnits="userSpaceOnUse">
<stop stop-color="#234C98"/>
<stop offset="1" stop-color="#DF56EB"/>
</linearGradient>
<linearGradient id="paint138_linear_265_7560" x1="152.542" y1="57.4939" x2="117.05" y2="31.6979" gradientUnits="userSpaceOnUse">
<stop stop-color="#234B99"/>
<stop offset="1" stop-color="#DF55ED"/>
</linearGradient>
<linearGradient id="paint139_linear_265_7560" x1="153.328" y1="56.2737" x2="117.701" y2="30.3796" gradientUnits="userSpaceOnUse">
<stop stop-color="#224A99"/>
<stop offset="1" stop-color="#DE54EE"/>
</linearGradient>
<linearGradient id="paint140_linear_265_7560" x1="153.959" y1="55.1377" x2="118.201" y2="29.1391" gradientUnits="userSpaceOnUse">
<stop stop-color="#214999"/>
<stop offset="1" stop-color="#DE52EF"/>
</linearGradient>
<linearGradient id="paint141_linear_265_7560" x1="154.582" y1="53.8286" x2="118.678" y2="27.7335" gradientUnits="userSpaceOnUse">
<stop stop-color="#204799"/>
<stop offset="1" stop-color="#DE51F0"/>
</linearGradient>
<linearGradient id="paint142_linear_265_7560" x1="155.172" y1="52.4407" x2="119.138" y2="26.2411" gradientUnits="userSpaceOnUse">
<stop stop-color="#204699"/>
<stop offset="1" stop-color="#DE50F1"/>
</linearGradient>
<linearGradient id="paint143_linear_265_7560" x1="155.789" y1="50.9445" x2="119.612" y2="24.6508" gradientUnits="userSpaceOnUse">
<stop stop-color="#1F459A"/>
<stop offset="1" stop-color="#DE4FF2"/>
</linearGradient>
<linearGradient id="paint144_linear_265_7560" x1="156.402" y1="49.4392" x2="120.091" y2="23.0385" gradientUnits="userSpaceOnUse">
<stop stop-color="#1E439A"/>
<stop offset="1" stop-color="#DE4EF3"/>
</linearGradient>
<linearGradient id="paint145_linear_265_7560" x1="157.085" y1="47.9069" x2="120.639" y2="21.4081" gradientUnits="userSpaceOnUse">
<stop stop-color="#1D429A"/>
<stop offset="1" stop-color="#DE4CF4"/>
</linearGradient>
<linearGradient id="paint146_linear_265_7560" x1="157.797" y1="46.387" x2="121.209" y2="19.794" gradientUnits="userSpaceOnUse">
<stop stop-color="#1D419A"/>
<stop offset="1" stop-color="#DD4BF5"/>
</linearGradient>
<linearGradient id="paint147_linear_265_7560" x1="158.588" y1="44.9445" x2="121.862" y2="18.2511" gradientUnits="userSpaceOnUse">
<stop stop-color="#1C3F9A"/>
<stop offset="1" stop-color="#DD4AF6"/>
</linearGradient>
<linearGradient id="paint148_linear_265_7560" x1="159.455" y1="43.5911" x2="122.59" y2="16.7971" gradientUnits="userSpaceOnUse">
<stop stop-color="#1B3E9B"/>
<stop offset="1" stop-color="#DD49F7"/>
</linearGradient>
<linearGradient id="paint149_linear_265_7560" x1="160.407" y1="42.3647" x2="123.407" y2="15.4725" gradientUnits="userSpaceOnUse">
<stop stop-color="#1A3D9B"/>
<stop offset="1" stop-color="#DD47F8"/>
</linearGradient>
<linearGradient id="paint150_linear_265_7560" x1="161.459" y1="41.3045" x2="124.32" y2="14.3118" gradientUnits="userSpaceOnUse">
<stop stop-color="#1A3C9B"/>
<stop offset="1" stop-color="#DD46FA"/>
</linearGradient>
<linearGradient id="paint151_linear_265_7560" x1="162.632" y1="40.4451" x2="125.356" y2="13.3519" gradientUnits="userSpaceOnUse">
<stop stop-color="#193A9B"/>
<stop offset="1" stop-color="#DD45FB"/>
</linearGradient>
<linearGradient id="paint152_linear_265_7560" x1="163.933" y1="39.8085" x2="126.521" y2="12.6172" gradientUnits="userSpaceOnUse">
<stop stop-color="#18399B"/>
<stop offset="1" stop-color="#DC44FC"/>
</linearGradient>
<linearGradient id="paint153_linear_265_7560" x1="165.404" y1="39.4526" x2="127.859" y2="12.1542" gradientUnits="userSpaceOnUse">
<stop stop-color="#17389C"/>
<stop offset="1" stop-color="#DC42FD"/>
</linearGradient>
<linearGradient id="paint154_linear_265_7560" x1="167.054" y1="39.3623" x2="129.365" y2="11.97" gradientUnits="userSpaceOnUse">
<stop stop-color="#17369C"/>
<stop offset="1" stop-color="#DC41FE"/>
</linearGradient>
<linearGradient id="paint155_linear_265_7560" x1="168.831" y1="39.6278" x2="131.007" y2="12.1373" gradientUnits="userSpaceOnUse">
<stop stop-color="#16359C"/>
<stop offset="1" stop-color="#DC40FF"/>
</linearGradient>
<clipPath id="clip0_265_7560">
<rect width="170" height="75.6907" fill="white"/>
</clipPath>
</defs>
</svg>
