<svg width="16" height="16" viewBox="0 0 16 16" fill="none" xmlns="http://www.w3.org/2000/svg">
<path fill-rule="evenodd" clip-rule="evenodd" d="M3.31947 4.38009C2.5445 5.38065 2.08325 6.63646 2.08325 8C2.08325 9.36353 2.5445 10.6193 3.31948 11.6199L5.1123 9.82708C4.77725 9.29867 4.58325 8.67199 4.58325 7.99999C4.58325 7.32801 4.77725 6.70133 5.1123 6.17291L3.31947 4.38009ZM6.17299 10.8877L4.38015 12.6805C5.38069 13.4555 6.63645 13.9167 7.99992 13.9167C9.36344 13.9167 10.6192 13.4554 11.6198 12.6805L9.82695 10.8876C9.29855 11.2227 8.67189 11.4167 7.99992 11.4167C7.32799 11.4167 6.70137 11.2227 6.17299 10.8877ZM3.31266 13.748C4.59023 14.7911 6.22202 15.4167 7.99992 15.4167C9.77786 15.4167 11.4097 14.7911 12.6873 13.748L12.7133 13.774L13.1589 13.3284C13.2163 13.2728 13.2728 13.2163 13.3284 13.159L13.774 12.7133L13.7479 12.6873C14.791 11.4097 15.4166 9.77792 15.4166 8C15.4166 6.22207 14.791 4.59027 13.7479 3.3127L13.774 3.28666L13.3285 2.84123C13.2728 2.7837 13.2162 2.72708 13.1587 2.67137L12.7133 2.226L12.6873 2.25203C11.4097 1.20894 9.77786 0.583328 7.99992 0.583328C6.22202 0.583328 4.59023 1.20891 3.31266 2.25196L3.2867 2.226L2.84634 2.66636C2.7853 2.72535 2.72527 2.78538 2.66628 2.84642L2.22604 3.28666L2.25199 3.3126C1.20888 4.59019 0.583252 6.22203 0.583252 8C0.583252 9.77796 1.20888 11.4098 2.25199 12.6874L2.22604 12.7133L2.66646 13.1538C2.72533 13.2147 2.78524 13.2746 2.84616 13.3335L3.2867 13.774L3.31266 13.748ZM11.6198 3.31952C10.6192 2.54456 9.36344 2.08333 7.99992 2.08333C6.63644 2.08333 5.38069 2.54453 4.38015 3.31944L6.17298 5.11228C6.70137 4.77729 7.32799 4.58333 7.99992 4.58333C8.67189 4.58333 9.29855 4.77732 9.82696 5.11234L11.6198 3.31952ZM11.4166 7.99999C11.4166 7.32805 11.2226 6.70141 10.8876 6.17301L12.6804 4.38018C13.4554 5.38073 13.9166 6.6365 13.9166 8C13.9166 9.36349 13.4554 10.6193 12.6804 11.6198L10.8876 9.82698C11.2226 9.29858 11.4166 8.67194 11.4166 7.99999ZM7.99992 6.08333C6.94137 6.08333 6.08325 6.94145 6.08325 7.99999C6.08325 9.05854 6.94137 9.91666 7.99992 9.91666C9.05847 9.91666 9.91659 9.05854 9.91659 7.99999C9.91659 6.94145 9.05847 6.08333 7.99992 6.08333Z" fill="#605D62"/>
</svg>
