<svg width="24" height="25" viewBox="0 0 24 25" fill="none" xmlns="http://www.w3.org/2000/svg">
<path d="M20.9539 8.79298C20.9117 7.8364 20.757 7.17876 20.5354 6.6089C20.3068 6.00403 19.9551 5.46247 19.4944 5.01227C19.0441 4.55507 18.4991 4.19982 17.9012 3.97478C17.328 3.75319 16.6738 3.5985 15.7172 3.55633C14.7536 3.51058 14.4476 3.5 12.0033 3.5C9.55905 3.5 9.25311 3.51058 8.29297 3.55276C7.33639 3.59493 6.67875 3.74976 6.10904 3.97121C5.50402 4.19982 4.96246 4.5515 4.51227 5.01227C4.05507 5.46247 3.69995 6.0076 3.47478 6.60547C3.25319 7.17876 3.0985 7.83282 3.05633 8.7894C3.01057 9.75312 3 10.0591 3 12.5033C3 14.9476 3.01057 15.2536 3.05276 16.2137C3.09493 17.1703 3.24975 17.8279 3.47135 18.3978C3.69995 19.0026 4.05507 19.5442 4.51227 19.9944C4.96246 20.4516 5.50759 20.8068 6.10546 21.0318C6.67875 21.2535 7.33281 21.4081 8.28954 21.4503C9.24954 21.4926 9.55562 21.503 11.9999 21.503C14.4442 21.503 14.7501 21.4926 15.7102 21.4503C16.6667 21.4081 17.3245 21.2535 17.8941 21.0318C19.1041 20.5641 20.0607 19.6075 20.5285 18.3978C20.7499 17.8245 20.9047 17.1703 20.9469 16.2137C20.989 15.2536 20.9996 14.9476 20.9996 12.5033C20.9996 10.0591 20.996 9.75312 20.9539 8.79298ZM19.3327 16.1433C19.2939 17.0226 19.1462 17.4973 19.0232 17.8139C18.7206 18.5983 18.0982 19.2206 17.3138 19.5232C16.9973 19.6462 16.5192 19.794 15.6433 19.8326C14.6937 19.8749 14.409 19.8852 12.0069 19.8852C9.60481 19.8852 9.31644 19.8749 8.37031 19.8326C7.49108 19.794 7.01629 19.6462 6.69977 19.5232C6.30948 19.3789 5.95421 19.1503 5.66586 18.8513C5.36691 18.5594 5.13832 18.2078 4.99407 17.8175C4.87097 17.5009 4.72329 17.0226 4.68468 16.1469C4.64237 15.1973 4.63194 14.9124 4.63194 12.5103C4.63194 10.1082 4.64237 9.81988 4.68468 8.87388C4.72329 7.99466 4.87097 7.51987 4.99407 7.20335C5.13832 6.81292 5.36691 6.45779 5.66942 6.1693C5.96122 5.87035 6.31291 5.64176 6.70335 5.49764C7.01986 5.37455 7.49823 5.22687 8.37388 5.18813C9.32345 5.14595 9.60837 5.13536 12.0103 5.13536C14.416 5.13536 14.7007 5.14595 15.6469 5.18813C16.5262 5.22687 17.0009 5.37455 17.3174 5.49764C17.7078 5.64176 18.063 5.87035 18.3513 6.1693C18.6503 6.46123 18.8788 6.81292 19.0232 7.20335C19.1462 7.51987 19.2939 7.9981 19.3327 8.87388C19.3748 9.82346 19.3854 10.1082 19.3854 12.5103C19.3854 14.9124 19.3748 15.1937 19.3327 16.1433Z" fill="#F4EFF4"/>
<path d="M12.0033 7.87842C9.45009 7.87842 7.37854 9.94983 7.37854 12.5032C7.37854 15.0566 9.45009 17.1279 12.0033 17.1279C14.5567 17.1279 16.628 15.0566 16.628 12.5032C16.628 9.94983 14.5567 7.87842 12.0033 7.87842ZM12.0033 15.5032C10.3469 15.5032 9.00334 14.1597 9.00334 12.5032C9.00334 10.8467 10.3469 9.50321 12.0033 9.50321C13.6599 9.50321 15.0033 10.8467 15.0033 12.5032C15.0033 14.1597 13.6599 15.5032 12.0033 15.5032Z" fill="#F4EFF4"/>
<path d="M17.8905 7.69542C17.8905 8.29154 17.4072 8.77489 16.811 8.77489C16.2148 8.77489 15.7314 8.29154 15.7314 7.69542C15.7314 7.09918 16.2148 6.61597 16.811 6.61597C17.4072 6.61597 17.8905 7.09918 17.8905 7.69542Z" fill="#F4EFF4"/>
</svg>
