<svg width="20" height="20" viewBox="0 0 20 20" fill="none" xmlns="http://www.w3.org/2000/svg">
<path d="M15.8333 9.16667H4.16667C3.24619 9.16667 2.5 9.91286 2.5 10.8333V16.6667C2.5 17.5871 3.24619 18.3333 4.16667 18.3333H15.8333C16.7538 18.3333 17.5 17.5871 17.5 16.6667V10.8333C17.5 9.91286 16.7538 9.16667 15.8333 9.16667Z" stroke="#605D62" stroke-width="1.5" stroke-linecap="round" stroke-linejoin="round"/>
<path d="M5.83325 9.16667V5.83334C5.83325 4.72827 6.27224 3.66846 7.05364 2.88706C7.83504 2.10566 8.89485 1.66667 9.99992 1.66667C11.105 1.66667 12.1648 2.10566 12.9462 2.88706C13.7276 3.66846 14.1666 4.72827 14.1666 5.83334V9.16667" stroke="#605D62" stroke-width="1.5" stroke-linecap="round" stroke-linejoin="round"/>
</svg>
