<svg width="140" height="23" viewBox="0 0 140 23" fill="none" xmlns="http://www.w3.org/2000/svg">
<path d="M6.968 18.336C11.096 18.336 13.448 15.936 13.448 12V11.664H10.328V12.096C10.328 14.064 9.224 15.504 6.968 15.504C4.712 15.504 3.368 14.016 3.368 11.664V7.536C3.368 5.184 4.712 3.696 6.968 3.696C9.224 3.696 10.328 5.136 10.328 7.104V7.344H13.448V7.2C13.448 3.264 11.096 0.863999 6.968 0.863999C2.792 0.863999 0.2 3.264 0.2 7.584V11.616C0.2 15.936 2.792 18.336 6.968 18.336ZM16.1253 18H19.1493V11.232C19.1493 9.552 20.2533 8.736 21.7893 8.736H23.2773V6.048H21.8373C20.7333 6.048 19.8693 6.48 19.5333 7.44H19.1013V6.096H16.1253V18ZM26.9369 22.8H34.4249C36.0089 22.8 37.0649 21.744 37.0649 20.112V6.096H34.0409V12.144C34.0409 14.352 32.9609 15.648 31.1129 15.648C29.4809 15.648 28.5689 14.76 28.5689 12.96V6.096H25.5449V13.2C25.5449 16.152 27.3929 18.192 30.1769 18.192C32.3129 18.192 33.2729 17.256 33.6569 16.44H34.0889V19.44C34.0889 19.92 33.8489 20.16 33.4169 20.16H26.9369V22.8ZM40.43 22.8H43.454V16.632H43.886C44.39 17.472 45.422 18.336 47.582 18.336C50.462 18.336 52.958 16.128 52.958 12.24V11.856C52.958 7.968 50.438 5.76 47.582 5.76C45.422 5.76 44.39 6.624 43.838 7.536H43.406V6.096H40.43V22.8ZM46.67 15.696C44.798 15.696 43.406 14.472 43.406 12.168V11.928C43.406 9.624 44.822 8.4 46.67 8.4C48.518 8.4 49.934 9.624 49.934 11.928V12.168C49.934 14.472 48.542 15.696 46.67 15.696ZM59.9197 18H63.2797V15.504H60.9757C60.5437 15.504 60.3037 15.264 60.3037 14.784V8.592H63.5677V6.096H60.3037V2.4H57.2797V6.096H54.3037V8.592H57.2797V15.312C57.2797 16.944 58.3357 18 59.9197 18ZM71.5471 18.336C75.0991 18.336 77.7871 16.08 77.7871 12.24V11.856C77.7871 8.016 75.0991 5.76 71.5471 5.76C67.9951 5.76 65.3071 8.016 65.3071 11.856V12.24C65.3071 16.08 67.9951 18.336 71.5471 18.336ZM71.5471 15.648C69.6991 15.648 68.3311 14.4 68.3311 12.168V11.928C68.3311 9.696 69.6751 8.448 71.5471 8.448C73.4191 8.448 74.7631 9.696 74.7631 11.928V12.168C74.7631 14.4 73.3951 15.648 71.5471 15.648ZM81.8264 18H87.2984L89.4584 3.072H89.8904L92.0504 18H97.5224L99.7304 1.2H96.5864L94.9544 15.792H94.5224L92.4104 1.2H86.9384L84.8264 15.792H84.3944L82.7624 1.2H79.6184L81.8264 18ZM105.696 18.336C108.192 18.336 108.936 16.992 109.152 16.392H109.608V16.416C109.608 17.376 110.472 18 111.648 18H113.664V15.504H112.704C112.272 15.504 112.032 15.264 112.032 14.784V10.344C112.032 7.368 110.064 5.76 106.944 5.76C103.848 5.76 102.288 7.32 101.712 9.12L104.496 10.056C104.712 8.976 105.384 8.208 106.896 8.208C108.432 8.208 109.104 9.024 109.104 10.128V10.8H105.84C103.152 10.8 101.232 12.072 101.232 14.52C101.232 16.968 103.152 18.336 105.696 18.336ZM106.224 15.888C104.928 15.888 104.256 15.288 104.256 14.424C104.256 13.56 104.928 13.056 106.056 13.056H109.104V13.296C109.104 14.88 107.904 15.888 106.224 15.888ZM117.692 18H122.492L126.284 6.096H123.068L120.308 15.792H119.876L117.116 6.096H113.9L117.692 18ZM133.44 18.336C136.704 18.336 138.12 16.488 138.792 15.216L136.32 13.92C135.912 14.832 135.216 15.696 133.536 15.696C131.856 15.696 130.584 14.568 130.512 12.936H139.176V11.904C139.176 8.256 136.896 5.76 133.392 5.76C129.84 5.76 127.44 8.16 127.44 11.904V12.192C127.44 15.936 129.864 18.336 133.44 18.336ZM130.536 10.68C130.752 9.312 131.736 8.4 133.368 8.4C134.928 8.4 135.96 9.312 136.104 10.68H130.536Z" fill="url(#paint0_linear_1917_26)"/>
<defs>
<linearGradient id="paint0_linear_1917_26" x1="-1" y1="-6" x2="141" y2="-6" gradientUnits="userSpaceOnUse">
<stop stop-color="#AA3FFF"/>
<stop offset="1" stop-color="#31E1F7"/>
</linearGradient>
</defs>
</svg>
