<svg width="16" height="15" viewBox="0 0 16 15" fill="none" xmlns="http://www.w3.org/2000/svg">
<path fill-rule="evenodd" clip-rule="evenodd" d="M12.8637 1.69699C12.9883 1.57242 13.1572 1.50244 13.3334 1.50244C13.5095 1.50244 13.6785 1.57242 13.803 1.69699C13.9276 1.82155 13.9976 1.99049 13.9976 2.16666C13.9976 2.34281 13.9276 2.51176 13.803 2.63632L7.6166 8.82277L6.36415 9.13588L6.67726 7.88343L12.8637 1.69699ZM13.3334 0.00244141C12.7594 0.00244141 12.2089 0.230456 11.803 0.636325L5.46971 6.96966L5.32282 7.11655L5.27243 7.31809L4.60577 9.98475L4.3026 11.1974L5.51528 10.8943L8.18194 10.2276L8.38348 10.1772L8.53037 10.0303L14.8637 3.69699C15.2696 3.29112 15.4976 2.74064 15.4976 2.16666C15.4976 1.59267 15.2696 1.04219 14.8637 0.636325C14.4578 0.230456 13.9074 0.00244141 13.3334 0.00244141ZM2.66671 1.41667C2.11417 1.41667 1.58427 1.63616 1.19357 2.02686C0.802867 2.41756 0.583374 2.94747 0.583374 3.5V12.8333C0.583374 13.3859 0.802867 13.9158 1.19357 14.3065C1.58427 14.6972 2.11417 14.9167 2.66671 14.9167H12C12.5526 14.9167 13.0825 14.6972 13.4732 14.3065C13.8639 13.9158 14.0834 13.3859 14.0834 12.8333V8.16667V7.41667H12.5834V8.16667V12.8333C12.5834 12.988 12.5219 13.1364 12.4125 13.2458C12.3031 13.3552 12.1547 13.4167 12 13.4167H2.66671C2.512 13.4167 2.36362 13.3552 2.25423 13.2458C2.14483 13.1364 2.08337 12.988 2.08337 12.8333V3.5C2.08337 3.34529 2.14483 3.19692 2.25423 3.08752C2.36362 2.97812 2.512 2.91667 2.66671 2.91667H7.33337H8.08337V1.41667H7.33337H2.66671Z" fill="#605D62"/>
</svg>
