<svg width="64" height="65" viewBox="0 0 64 65" fill="none" xmlns="http://www.w3.org/2000/svg">
<rect y="0.5" width="64" height="64" rx="32" fill="#F7931A"/>
<path fill-rule="evenodd" clip-rule="evenodd" d="M18.0833 24.5C18.0833 23.4414 18.9414 22.5833 19.9999 22.5833H43.9999C45.0585 22.5833 45.9166 23.4414 45.9166 24.5V29.0833H18.0833V24.5ZM16.5833 29.8333V24.5C16.5833 22.613 18.1129 21.0833 19.9999 21.0833H43.9999C45.8869 21.0833 47.4166 22.613 47.4166 24.5V29.8333V40.5C47.4166 42.387 45.8869 43.9167 43.9999 43.9167H19.9999C18.1129 43.9167 16.5833 42.387 16.5833 40.5V29.8333ZM45.9166 30.5833V40.5C45.9166 41.5585 45.0585 42.4167 43.9999 42.4167H19.9999C18.9414 42.4167 18.0833 41.5585 18.0833 40.5V30.5833H45.9166Z" fill="black"/>
</svg>
