<svg width="24" height="25" viewBox="0 0 24 25" fill="none" xmlns="http://www.w3.org/2000/svg">
<path d="M3.27364 12.0177C5.1103 11.0707 7.16736 10.2717 9.08798 9.47263C12.3939 8.16063 15.7104 6.87822 19.0584 5.67473C19.7091 5.46756 20.8845 5.27028 21 6.17783C20.937 7.46024 20.6747 8.74265 20.4963 10.0152C20.0449 12.8266 19.5307 15.6183 19.0164 18.4199C18.838 19.357 17.5995 19.8306 16.8019 19.2386C14.8918 18.0352 12.9607 16.8317 11.0821 15.5888C10.4628 14.9969 11.0401 14.1485 11.5858 13.7342C13.1601 12.2742 14.8289 11.0411 16.3192 9.50223C16.718 8.58481 15.532 9.35425 15.1437 9.59101C12.9817 10.9918 10.8826 12.4715 8.61569 13.6947C7.45072 14.2965 6.10734 13.7835 4.94238 13.4481C3.90336 13.0436 2.37106 12.6392 3.27364 12.0177Z" fill="#F4EFF4"/>
</svg>
