<svg width="40" height="40" viewBox="0 0 40 40" fill="none" xmlns="http://www.w3.org/2000/svg">
<path d="M20 40C31.0457 40 40 31.0457 40 20C40 8.9543 31.0457 0 20 0C8.9543 0 0 8.9543 0 20C0 31.0457 8.9543 40 20 40Z" fill="#EA332A"/>
<path d="M30.3111 16.2936C29.3415 15.6154 28.3047 14.8924 27.2902 14.1751C27.2668 14.1569 27.2425 14.1401 27.2173 14.1246C27.0982 14.028 26.9636 13.9522 26.8193 13.9004L26.8081 13.8948C24.0955 13.2391 21.3382 12.5665 18.6701 11.9163C16.2489 11.3278 13.8295 10.7393 11.4121 10.1508C11.3504 10.1344 11.2887 10.1172 11.2214 10.1004C10.9839 10.0188 10.7322 9.98644 10.4817 10.0051C10.4077 10.0159 10.3369 10.0427 10.2743 10.0836L10.207 10.1396C10.122 10.2253 10.057 10.3286 10.0165 10.4422L10 10.4871V10.7449L10.0112 10.7841C11.5411 15.0717 13.1105 19.4208 14.6238 23.6301C15.7896 26.8696 17.0003 30.2269 18.1829 33.5223C18.2231 33.634 18.2958 33.7311 18.3917 33.801C18.4876 33.871 18.6023 33.9106 18.7209 33.9147H18.7769C18.8893 33.9179 19.0006 33.891 19.0991 33.8368C19.1976 33.7826 19.2798 33.703 19.3373 33.6064L23.7764 27.1329C24.8581 25.558 25.9397 23.9813 27.0214 22.4026C27.4642 21.758 27.907 21.1079 28.3498 20.4633C29.0784 19.3985 29.8294 18.3 30.5748 17.2294L30.6141 17.1734V17.1061C30.6305 16.9099 30.6365 16.5064 30.3114 16.2934M25.1099 18.6532C24.0675 19.1968 23.0026 19.7573 21.9321 20.3122C22.5542 19.6452 23.1824 18.9726 23.8041 18.3056C24.5831 17.4649 25.3957 16.5962 26.1916 15.7443L26.2081 15.7278C26.2822 15.6346 26.3627 15.5467 26.4491 15.4646C26.5108 15.4029 26.578 15.3413 26.6397 15.2685C27.0544 15.5535 27.4673 15.8412 27.8783 16.1316C28.1697 16.3389 28.4669 16.5463 28.7696 16.7536C27.5366 17.3814 26.3035 18.0259 25.1097 18.6537M22.4306 18.3847C21.6157 19.2677 20.7974 20.1476 19.9758 21.0245C18.3775 19.0851 16.7745 17.1497 15.1669 15.218C14.4495 14.3549 13.7265 13.4862 13.0091 12.6231L13.0035 12.6175C12.841 12.4325 12.684 12.2309 12.5271 12.0402C12.4262 11.9113 12.3198 11.788 12.2132 11.6591C12.8631 11.8272 13.5191 11.9842 14.1637 12.1355C14.7297 12.27 15.3182 12.4102 15.8955 12.5559C19.1462 13.3461 22.3988 14.1364 25.6533 14.9266C24.5715 16.0811 23.4842 17.2525 22.4306 18.3847M19.6113 29.3081C19.673 28.7195 19.7402 28.1143 19.7963 27.5202C19.8468 27.0438 19.8972 26.5562 19.9477 26.091C20.0262 25.3456 20.1103 24.5722 20.1776 23.8155L20.1939 23.6811C20.25 23.1991 20.3061 22.7002 20.3397 22.2014C20.4048 22.1653 20.4722 22.1335 20.5415 22.1062C20.6277 22.0696 20.7119 22.0285 20.7937 21.9828C22.0884 21.3046 23.3849 20.6283 24.6833 19.9539C25.9977 19.2703 27.3111 18.5847 28.6234 17.897C27.4284 19.6273 26.2384 21.361 25.0535 23.0981C24.05 24.5609 23.019 26.0686 21.9936 27.5539C21.59 28.148 21.1698 28.7533 20.7718 29.3361C20.3235 29.986 19.8639 30.6532 19.4154 31.3202C19.4714 30.6476 19.5388 29.9695 19.6116 29.3081M11.7988 12.9812C11.726 12.7794 11.6475 12.5721 11.5803 12.3759C13.0938 14.203 14.618 16.0413 16.1033 17.8236C16.8712 18.7484 17.639 19.6675 18.4064 20.5979C18.5578 20.7716 18.7091 20.9566 18.8548 21.1359C19.0454 21.3657 19.2359 21.6067 19.4432 21.8365C19.3759 22.4137 19.3198 22.9963 19.2582 23.5571C19.219 23.9494 19.1798 24.3417 19.1348 24.7396V24.7453C19.1184 24.9975 19.0844 25.2496 19.0564 25.4963C19.0171 25.8382 18.9275 26.6117 18.9275 26.6117L18.9219 26.6509C18.821 27.7831 18.6976 28.9264 18.58 30.0362C18.5296 30.4958 18.4848 30.9666 18.4343 31.4374C18.4063 31.3533 18.3727 31.2693 18.3447 31.1907C18.2591 30.962 18.1769 30.7322 18.0979 30.5013L17.4982 28.8367C15.5982 23.5514 13.6981 18.2662 11.798 12.981" fill="#F4EFF4"/>
</svg>
