<svg width="24" height="25" viewBox="0 0 24 25" fill="none" xmlns="http://www.w3.org/2000/svg">
<path d="M8.66085 19.4999C15.4536 19.4999 19.1683 14.1142 19.1683 9.44406C19.1683 9.2911 19.165 9.13877 19.1579 8.98728C19.8789 8.48836 20.5055 7.86576 21 7.1571C20.3383 7.43869 19.6261 7.628 18.8792 7.71364C19.6416 7.27593 20.227 6.5838 20.5031 5.75873C19.7896 6.16358 18.9993 6.4577 18.1581 6.61657C17.4842 5.9296 16.5247 5.5 15.4623 5.5C13.423 5.5 11.7691 7.08272 11.7691 9.03374C11.7691 9.31122 11.8016 9.58091 11.8649 9.83964C8.79559 9.69184 6.07381 8.28557 4.25257 6.14704C3.93555 6.66924 3.7526 7.27603 3.7526 7.92349C3.7526 9.14951 4.40459 10.2322 5.39595 10.8653C4.79008 10.8475 4.22098 10.6883 3.72343 10.4234C3.72288 10.4382 3.72288 10.4526 3.72288 10.4684C3.72288 12.1801 4.99582 13.6092 6.68584 13.9331C6.37542 14.0139 6.04882 14.0574 5.71198 14.0574C5.47443 14.0574 5.24283 14.0351 5.01783 13.9937C5.48797 15.3979 6.8514 16.4198 8.46777 16.4484C7.20375 17.3965 5.61148 17.9613 3.88095 17.9613C3.5833 17.9613 3.28906 17.945 3 17.9123C4.63443 18.9149 6.57521 19.5 8.66096 19.5" fill="#F4EFF4"/>
</svg>
