<svg width="16" height="16" viewBox="0 0 16 16" fill="none" xmlns="http://www.w3.org/2000/svg">
<path fill-rule="evenodd" clip-rule="evenodd" d="M6.08335 4.66667C6.08335 3.60812 6.94147 2.75 8.00002 2.75C9.05857 2.75 9.91669 3.60812 9.91669 4.66667C9.91669 5.72521 9.05857 6.58333 8.00002 6.58333C6.94147 6.58333 6.08335 5.72521 6.08335 4.66667ZM8.00002 1.25C6.11305 1.25 4.58335 2.77969 4.58335 4.66667C4.58335 6.55364 6.11305 8.08333 8.00002 8.08333C9.88699 8.08333 11.4167 6.55364 11.4167 4.66667C11.4167 2.77969 9.88699 1.25 8.00002 1.25ZM5.33335 9.25C4.4272 9.25 3.55815 9.60997 2.91741 10.2507C2.27666 10.8915 1.91669 11.7605 1.91669 12.6667V14V14.75H3.41669V14V12.6667C3.41669 12.1583 3.61862 11.6708 3.97807 11.3114C4.33751 10.9519 4.82502 10.75 5.33335 10.75H10.6667C11.175 10.75 11.6625 10.9519 12.022 11.3114C12.3814 11.6708 12.5834 12.1583 12.5834 12.6667V14V14.75H14.0834V14V12.6667C14.0834 11.7605 13.7234 10.8915 13.0826 10.2507C12.4419 9.60997 11.5728 9.25 10.6667 9.25H5.33335Z" fill="#F4EFF4"/>
</svg>
