<svg width="14" height="14" viewBox="0 0 14 14" fill="none" xmlns="http://www.w3.org/2000/svg">
<path fill-rule="evenodd" clip-rule="evenodd" d="M5.08342 3.66667C5.08342 2.60812 5.94154 1.75 7.00008 1.75C8.05863 1.75 8.91675 2.60812 8.91675 3.66667C8.91675 4.72521 8.05863 5.58333 7.00008 5.58333C5.94154 5.58333 5.08342 4.72521 5.08342 3.66667ZM7.00008 0.25C5.11311 0.25 3.58341 1.77969 3.58341 3.66667C3.58341 5.55364 5.11311 7.08333 7.00008 7.08333C8.88705 7.08333 10.4167 5.55364 10.4167 3.66667C10.4167 1.77969 8.88705 0.25 7.00008 0.25ZM4.33341 8.25C3.42726 8.25 2.55822 8.60997 1.91747 9.25072C1.27672 9.89147 0.916748 10.7605 0.916748 11.6667V13V13.75H2.41675V13V11.6667C2.41675 11.1583 2.61868 10.6708 2.97813 10.3114C3.33757 9.95193 3.82508 9.75 4.33341 9.75H9.66675C10.1751 9.75 10.6626 9.95193 11.022 10.3114C11.3815 10.6708 11.5834 11.1583 11.5834 11.6667V13V13.75H13.0834V13V11.6667C13.0834 10.7605 12.7234 9.89147 12.0827 9.25072C11.4419 8.60997 10.5729 8.25 9.66675 8.25H4.33341Z" fill="#605D62"/>
</svg>
