<svg width="20" height="20" viewBox="0 0 20 20" fill="none" xmlns="http://www.w3.org/2000/svg">
<path fill-rule="evenodd" clip-rule="evenodd" d="M7.41658 5.83333C7.41658 4.4066 8.57318 3.25 9.99992 3.25C11.4267 3.25 12.5833 4.4066 12.5833 5.83333C12.5833 7.26007 11.4267 8.41667 9.99992 8.41667C8.57318 8.41667 7.41658 7.26007 7.41658 5.83333ZM9.99992 1.75C7.74476 1.75 5.91659 3.57817 5.91659 5.83333C5.91659 8.0885 7.74476 9.91667 9.99992 9.91667C12.2551 9.91667 14.0833 8.0885 14.0833 5.83333C14.0833 3.57817 12.2551 1.75 9.99992 1.75ZM6.66658 11.75C5.58362 11.75 4.54501 12.1802 3.77923 12.946C3.01346 13.7118 2.58325 14.7504 2.58325 15.8333V17.5V18.25H4.08325V17.5V15.8333C4.08325 15.1482 4.35542 14.4911 4.83989 14.0066C5.32436 13.5222 5.98144 13.25 6.66658 13.25H13.3333C14.0184 13.25 14.6755 13.5222 15.1599 14.0066C15.6444 14.4911 15.9166 15.1482 15.9166 15.8333V17.5V18.25H17.4166V17.5V15.8333C17.4166 14.7504 16.9864 13.7118 16.2206 12.946C15.4548 12.1802 14.4162 11.75 13.3333 11.75H6.66658Z" fill="#605D62"/>
</svg>
