<svg width="16" height="14" viewBox="0 0 16 14" fill="none" xmlns="http://www.w3.org/2000/svg">
<path fill-rule="evenodd" clip-rule="evenodd" d="M1.41675 2.99999C1.41675 2.67782 1.67792 2.41666 2.00008 2.41666H14.0001C14.3222 2.41666 14.5834 2.67782 14.5834 2.99999V4.91666H1.41675V2.99999ZM-0.083252 5.66666V2.99999C-0.083252 1.8494 0.849488 0.916656 2.00008 0.916656H14.0001C15.1507 0.916656 16.0834 1.8494 16.0834 2.99999V5.66666V11C16.0834 12.1506 15.1507 13.0833 14.0001 13.0833H2.00008C0.849488 13.0833 -0.083252 12.1506 -0.083252 11V5.66666ZM14.5834 6.41666V11C14.5834 11.3222 14.3222 11.5833 14.0001 11.5833H2.00008C1.67792 11.5833 1.41675 11.3222 1.41675 11V6.41666H14.5834Z" fill="#605D62"/>
</svg>
