<svg width="14" height="14" viewBox="0 0 14 14" fill="none" xmlns="http://www.w3.org/2000/svg">
<path d="M6.99992 13.6667C10.6818 13.6667 13.6666 10.6819 13.6666 7C13.6666 3.3181 10.6818 0.333336 6.99992 0.333336C3.31802 0.333336 0.333252 3.3181 0.333252 7C0.333252 10.6819 3.31802 13.6667 6.99992 13.6667Z" fill="#EA332A"/>
<path d="M10.4369 5.76454C10.1137 5.53847 9.76807 5.29747 9.4299 5.05836C9.42211 5.05232 9.41401 5.04671 9.40561 5.04155C9.36591 5.00935 9.32104 4.98408 9.27294 4.9668L9.26922 4.96494C8.36499 4.74636 7.44592 4.52217 6.55655 4.30545C5.74947 4.10927 4.94301 3.9131 4.13719 3.71695C4.11663 3.71146 4.09605 3.70573 4.07365 3.70014C3.99445 3.67295 3.91058 3.66215 3.82708 3.66839C3.80241 3.67199 3.77881 3.68091 3.75794 3.69455L3.7355 3.71322C3.70718 3.74177 3.68551 3.77621 3.67199 3.81409L3.6665 3.82904V3.91496L3.67023 3.92804C4.1802 5.35724 4.70335 6.80695 5.20779 8.21002C5.59639 9.28986 5.99994 10.409 6.39413 11.5075C6.40753 11.5447 6.43176 11.577 6.46372 11.6003C6.49569 11.6237 6.53394 11.6369 6.57348 11.6382H6.59214C6.62961 11.6393 6.66669 11.6303 6.69954 11.6123C6.73238 11.5942 6.75979 11.5677 6.77895 11.5355L8.25863 9.37765C8.61919 8.85269 8.97974 8.32709 9.34031 7.80087C9.4879 7.58602 9.6355 7.3693 9.78309 7.15445C10.026 6.79949 10.2763 6.43335 10.5248 6.07648L10.5379 6.0578V6.03538C10.5434 5.96998 10.5453 5.83547 10.437 5.76448M8.70315 6.55106C8.35566 6.73227 8.0007 6.91909 7.64388 7.10406C7.85125 6.88175 8.06064 6.65755 8.26786 6.43522C8.52754 6.15498 8.79841 5.86541 9.06371 5.58144L9.0692 5.57595C9.09391 5.54488 9.12074 5.51556 9.14953 5.48822C9.17009 5.46765 9.1925 5.44709 9.21307 5.42283C9.35131 5.51785 9.48893 5.61375 9.62595 5.71052C9.72308 5.77963 9.82212 5.84876 9.92302 5.91789C9.51202 6.12714 9.10099 6.34197 8.70307 6.55125M7.81005 6.46156C7.53839 6.7559 7.26563 7.04921 6.99176 7.34149C6.459 6.69505 5.92469 6.04989 5.38882 5.40602C5.14968 5.11832 4.90866 4.82872 4.66954 4.54102L4.66767 4.53916C4.61349 4.4775 4.56118 4.4103 4.50886 4.34674C4.47522 4.30378 4.43976 4.26268 4.40425 4.21971C4.62086 4.27575 4.83954 4.32807 5.05439 4.37852C5.24308 4.42335 5.43922 4.47007 5.63167 4.51863C6.71524 4.78204 7.79943 5.04546 8.88426 5.30888C8.52369 5.69372 8.16125 6.08418 7.81003 6.46156M6.87028 10.1027C6.89085 9.90652 6.91325 9.70478 6.93195 9.50674C6.94876 9.34793 6.96559 9.1854 6.98242 9.03035C7.00858 8.78188 7.0366 8.52407 7.05902 8.27185L7.06449 8.22703C7.08316 8.06636 7.10187 7.90008 7.11308 7.73382C7.13477 7.72176 7.15725 7.71116 7.18035 7.70208C7.20908 7.68989 7.23713 7.67616 7.26439 7.66095C7.69596 7.43488 8.12814 7.20944 8.56095 6.98465C8.99908 6.75678 9.43687 6.52823 9.87429 6.299C9.47597 6.87576 9.07931 7.45366 8.68433 8.0327C8.34983 8.52031 8.00616 9.02287 7.66437 9.51796C7.52985 9.716 7.38976 9.91777 7.25711 10.1121C7.10765 10.3287 6.95446 10.5511 6.80498 10.7734C6.82365 10.5492 6.8461 10.3232 6.87036 10.1027M4.26612 4.6604C4.24182 4.59315 4.21566 4.52403 4.19326 4.45864C4.69776 5.06768 5.20585 5.68045 5.70094 6.27454C5.95689 6.58281 6.21284 6.88917 6.46865 7.1993C6.5191 7.25721 6.56953 7.31887 6.61811 7.37864C6.68164 7.45525 6.74512 7.53559 6.81424 7.61216C6.79181 7.80459 6.77311 7.99876 6.75258 8.1857C6.7395 8.31648 6.72642 8.44724 6.71145 8.57989V8.58176C6.70597 8.66583 6.69464 8.74989 6.68529 8.83211C6.67221 8.94606 6.64234 9.20391 6.64234 9.20391L6.64047 9.21699C6.60685 9.59437 6.56572 9.97548 6.52651 10.3454C6.5097 10.4986 6.49478 10.6555 6.47794 10.8125C6.46859 10.7845 6.45741 10.7564 6.44806 10.7302C6.41954 10.654 6.39212 10.5774 6.3658 10.5004L6.1659 9.94556C5.53257 8.1838 4.89922 6.42206 4.26582 4.66035" fill="white"/>
</svg>
